<svg xmlns="http://www.w3.org/2000/svg" xmlns:xlink="http://www.w3.org/1999/xlink" width="1320" height="506" viewBox="0 0 1320 506">
  <defs>
    <linearGradient id="linear-gradient" x1="0.5" y1="1.295" x2="0.5" y2="0.469" gradientUnits="objectBoundingBox">
      <stop offset="0" stop-color="#ba68c8"/>
      <stop offset="0.19" stop-color="#9139af"/>
      <stop offset="0.31" stop-color="#7b1fa2"/>
      <stop offset="1" stop-color="#45147b"/>
    </linearGradient>
    <linearGradient id="linear-gradient-2" x1="0.096" y1="0.912" x2="0.907" y2="0.147" gradientUnits="objectBoundingBox">
      <stop offset="0" stop-color="#301493" stop-opacity="0.278"/>
      <stop offset="1" stop-opacity="0"/>
    </linearGradient>
    <linearGradient id="linear-gradient-3" x1="-0.039" y1="1.038" x2="0.349" y2="0.651" gradientUnits="objectBoundingBox">
      <stop offset="0" stop-color="#301493"/>
      <stop offset="1" stop-opacity="0"/>
    </linearGradient>
    <linearGradient id="linear-gradient-4" x1="1.039" y1="-0.038" x2="0.651" y2="0.349" xlink:href="#linear-gradient-3"/>
    <linearGradient id="linear-gradient-5" x1="0.056" y1="0.944" x2="0.83" y2="0.17" gradientUnits="objectBoundingBox">
      <stop offset="0" stop-opacity="0"/>
      <stop offset="0.194" stop-color="#05020f" stop-opacity="0.106"/>
      <stop offset="0.551" stop-color="#120738" stop-opacity="0.384"/>
      <stop offset="1" stop-color="#271077" stop-opacity="0.808"/>
    </linearGradient>
    <linearGradient id="linear-gradient-6" x1="-0.057" y1="1.056" x2="0.436" y2="0.564" xlink:href="#linear-gradient-3"/>
    <linearGradient id="linear-gradient-7" x1="-0.057" y1="1.056" x2="0.436" y2="0.564" xlink:href="#linear-gradient-3"/>
    <linearGradient id="linear-gradient-8" x1="-0.057" y1="1.056" x2="0.829" y2="0.108" xlink:href="#linear-gradient-3"/>
    <linearGradient id="linear-gradient-9" x1="0.936" y1="0.065" x2="0.091" y2="0.909" gradientUnits="objectBoundingBox">
      <stop offset="0" stop-opacity="0"/>
      <stop offset="1" stop-color="#230f6b" stop-opacity="0.729"/>
    </linearGradient>
    <linearGradient id="linear-gradient-10" x1="-0.008" y1="1.008" x2="0.704" y2="0.297" xlink:href="#linear-gradient-3"/>
    <linearGradient id="linear-gradient-11" x1="-0.074" y1="1.074" x2="0.205" y2="0.795" xlink:href="#linear-gradient-3"/>
  </defs>
  <g id="Grupo_130694" data-name="Grupo 130694" transform="translate(-140 -69.413)">
    <path id="Trazado_130200" data-name="Trazado 130200" d="M25,0H1295a25,25,0,0,1,25,25V481a25,25,0,0,1-25,25H25A25,25,0,0,1,0,481V25A25,25,0,0,1,25,0Z" transform="translate(140 69.413)" fill="url(#linear-gradient)"/>
    <g id="Grupo_130693" data-name="Grupo 130693">
      <g id="Grupo_53380" data-name="Grupo 53380" transform="translate(216.847 244.189)">
        <path id="Trazado_99508" data-name="Trazado 99508" d="M5.234,518.728,312.555,211.052a33.289,33.289,0,0,0,8.6-32.131L294.224,78.3A33.245,33.245,0,0,0,270.73,54.777L170.222,27.814a33.2,33.2,0,0,0-32.094,8.61L-169.194,344.1a33.292,33.292,0,0,0-8.6,32.131l26.931,100.624a33.244,33.244,0,0,0,23.495,23.521L-26.86,527.337A33.2,33.2,0,0,0,5.234,518.728Z" transform="translate(110.991 -198.284)" fill="url(#linear-gradient-2)" style="mix-blend-mode: screen;isolation: isolate"/>
        <path id="Trazado_99509" data-name="Trazado 99509" d="M2.917,600.331,369.48,233.345a9.818,9.818,0,0,0,2.536-9.474l-7.941-29.67a9.8,9.8,0,0,0-6.928-6.936l-29.636-7.95a9.79,9.79,0,0,0-9.464,2.539L-48.515,548.839a9.816,9.816,0,0,0-2.536,9.474l7.941,29.67a9.8,9.8,0,0,0,6.928,6.936l29.636,7.95A9.79,9.79,0,0,0,2.917,600.331Z" transform="translate(389.914 -350.584)" fill="url(#linear-gradient-3)" style="mix-blend-mode: screen;isolation: isolate"/>
        <path id="Trazado_99510" data-name="Trazado 99510" d="M33.314-154.538l-310.5,310.856a8.315,8.315,0,0,0-2.148,8.026l6.727,25.132a8.3,8.3,0,0,0,5.868,5.874l25.1,6.734a8.294,8.294,0,0,0,8.016-2.15l310.5-310.856a8.316,8.316,0,0,0,2.148-8.026L72.3-144.079a8.3,8.3,0,0,0-5.868-5.875l-25.1-6.734A8.291,8.291,0,0,0,33.314-154.538Z" transform="translate(211.681)" fill="url(#linear-gradient-4)" style="mix-blend-mode: screen;isolation: isolate"/>
        <path id="Trazado_99512" data-name="Trazado 99512" d="M1089.466-165.614,859.388,64.729a20.418,20.418,0,0,0-5.278,19.708l21.1,78.842a20.418,20.418,0,0,0,14.434,14.442l78.706,21.114a20.417,20.417,0,0,0,19.737-5.292L1218.167-36.8a20.417,20.417,0,0,0,5.277-19.708l-21.1-78.842a20.419,20.419,0,0,0-14.434-14.442L1109.2-170.906A20.422,20.422,0,0,0,1089.466-165.614Z" transform="translate(0 19.036)" fill="url(#linear-gradient-5)" style="mix-blend-mode: screen;isolation: isolate"/>
        <path id="Trazado_99513" data-name="Trazado 99513" d="M777.128-25.625l-224.2,224.455a19.9,19.9,0,0,0-5.143,19.205l20.562,76.827a19.9,19.9,0,0,0,14.066,14.072l76.694,20.574a19.9,19.9,0,0,0,19.232-5.156L902.538,99.9a19.9,19.9,0,0,0,5.143-19.205L887.119,3.866a19.9,19.9,0,0,0-14.065-14.073L796.36-30.782A19.9,19.9,0,0,0,777.128-25.625Z" transform="translate(-29 -6)" fill="url(#linear-gradient-6)" style="mix-blend-mode: screen;isolation: isolate"/>
        <path id="Trazado_99514" data-name="Trazado 99514" d="M598.57-128.464,450.227,20.049a16.069,16.069,0,0,0-4.151,15.51l13,48.57a16.048,16.048,0,0,0,11.341,11.354L518.931,108.5a16.024,16.024,0,0,0,15.491-4.155L682.765-44.172a16.069,16.069,0,0,0,4.151-15.51l-13-48.57a16.048,16.048,0,0,0-11.341-11.354L614.061-132.62A16.022,16.022,0,0,0,598.57-128.464Z" transform="translate(54.518 -19.399)" fill="url(#linear-gradient-7)" style="mix-blend-mode: screen;isolation: isolate"/>
        <path id="Trazado_99516" data-name="Trazado 99516" d="M464.87-272.82,269.67-77.395a17.324,17.324,0,0,0-4.478,16.721l17.9,66.89a17.323,17.323,0,0,0,12.246,12.252l66.775,17.913a17.322,17.322,0,0,0,16.745-4.489l195.2-195.424a17.324,17.324,0,0,0,4.477-16.721l-17.9-66.89A17.322,17.322,0,0,0,548.39-259.4l-66.775-17.913A17.323,17.323,0,0,0,464.87-272.82Z" transform="translate(-44.386 106.297)" fill="url(#linear-gradient-8)" style="mix-blend-mode: screen;isolation: isolate"/>
        <path id="Trazado_99517" data-name="Trazado 99517" d="M-8.821,207.252-162.853,361.461a16.689,16.689,0,0,0-4.311,16.105l13.5,50.433a16.662,16.662,0,0,0,11.775,11.789L-91.515,453.3a16.639,16.639,0,0,0,16.086-4.315L78.6,294.777a16.686,16.686,0,0,0,4.311-16.1l-13.5-50.433A16.664,16.664,0,0,0,57.64,216.45L7.265,202.937A16.639,16.639,0,0,0-8.821,207.252Z" transform="translate(99.796 -373.972)" fill="url(#linear-gradient-9)" style="mix-blend-mode: screen;isolation: isolate"/>
        <path id="Trazado_99522" data-name="Trazado 99522" d="M758.25-245.627,621.835-109.055a3.027,3.027,0,0,0-.782,2.921L624.18-94.45a3.025,3.025,0,0,0,2.139,2.14l11.664,3.129a3.027,3.027,0,0,0,2.925-.784L777.323-226.537a3.025,3.025,0,0,0,.782-2.921l-3.127-11.685a3.026,3.026,0,0,0-2.139-2.14l-11.664-3.129A3.026,3.026,0,0,0,758.25-245.627Z" transform="translate(-3.074 74.911)" opacity="0.47" fill="url(#linear-gradient-10)" style="mix-blend-mode: screen;isolation: isolate"/>
        <path id="Trazado_99524" data-name="Trazado 99524" d="M977.809-59.2,642.053,276.944a7.448,7.448,0,0,0-1.925,7.189l7.7,28.758a7.448,7.448,0,0,0,5.265,5.268l28.709,7.7a7.447,7.447,0,0,0,7.2-1.93L1024.753-12.212a7.447,7.447,0,0,0,1.925-7.189l-7.7-28.759a7.447,7.447,0,0,0-5.265-5.267l-28.708-7.7A7.448,7.448,0,0,0,977.809-59.2Z" transform="translate(-456.598 -12.496)" fill="url(#linear-gradient-11)" style="mix-blend-mode: screen;isolation: isolate"/>
      </g>
    </g>
    <g id="Grupo_58573" data-name="Grupo 58573" transform="translate(72 69.753)" opacity="0.6">
      <g id="Grupo_53374" data-name="Grupo 53374" transform="translate(585.298 23.003)">
        <line id="Línea_137" data-name="Línea 137" y2="5.433" transform="translate(80.954 12.832)" fill="none" stroke="#fff" stroke-miterlimit="10" stroke-width="1"/>
        <line id="Línea_138" data-name="Línea 138" x1="5.433" transform="translate(78.232 15.543)" fill="none" stroke="#fff" stroke-miterlimit="10" stroke-width="1"/>
        <line id="Línea_139" data-name="Línea 139" y2="5.433" transform="translate(96.824 12.832)" fill="none" stroke="#fff" stroke-miterlimit="10" stroke-width="1"/>
        <line id="Línea_140" data-name="Línea 140" x1="5.422" transform="translate(94.114 15.543)" fill="none" stroke="#fff" stroke-miterlimit="10" stroke-width="1"/>
        <line id="Línea_141" data-name="Línea 141" y2="5.433" transform="translate(112.706 12.832)" fill="none" stroke="#fff" stroke-miterlimit="10" stroke-width="1"/>
        <line id="Línea_142" data-name="Línea 142" x1="5.422" transform="translate(109.995 15.543)" fill="none" stroke="#fff" stroke-miterlimit="10" stroke-width="1"/>
        <line id="Línea_143" data-name="Línea 143" y2="5.433" transform="translate(128.576 12.832)" fill="none" stroke="#fff" stroke-miterlimit="10" stroke-width="1"/>
        <line id="Línea_144" data-name="Línea 144" x1="5.422" transform="translate(125.865 15.543)" fill="none" stroke="#fff" stroke-miterlimit="10" stroke-width="1"/>
        <line id="Línea_145" data-name="Línea 145" y2="5.433" transform="translate(144.457 12.832)" fill="none" stroke="#fff" stroke-miterlimit="10" stroke-width="1"/>
        <line id="Línea_146" data-name="Línea 146" x1="5.422" transform="translate(141.746 15.543)" fill="none" stroke="#fff" stroke-miterlimit="10" stroke-width="1"/>
        <line id="Línea_147" data-name="Línea 147" y2="5.433" transform="translate(160.339 12.832)" fill="none" stroke="#fff" stroke-miterlimit="10" stroke-width="1"/>
        <line id="Línea_148" data-name="Línea 148" x1="5.433" transform="translate(157.617 15.543)" fill="none" stroke="#fff" stroke-miterlimit="10" stroke-width="1"/>
        <line id="Línea_149" data-name="Línea 149" y2="5.433" transform="translate(80.954 28.725)" fill="none" stroke="#fff" stroke-miterlimit="10" stroke-width="1"/>
        <line id="Línea_150" data-name="Línea 150" x1="5.433" transform="translate(78.232 31.447)" fill="none" stroke="#fff" stroke-miterlimit="10" stroke-width="1"/>
        <line id="Línea_151" data-name="Línea 151" y2="5.433" transform="translate(96.824 28.725)" fill="none" stroke="#fff" stroke-miterlimit="10" stroke-width="1"/>
        <line id="Línea_152" data-name="Línea 152" x1="5.422" transform="translate(94.114 31.447)" fill="none" stroke="#fff" stroke-miterlimit="10" stroke-width="1"/>
        <line id="Línea_153" data-name="Línea 153" y2="5.433" transform="translate(112.706 28.725)" fill="none" stroke="#fff" stroke-miterlimit="10" stroke-width="1"/>
        <line id="Línea_154" data-name="Línea 154" x1="5.422" transform="translate(109.995 31.447)" fill="none" stroke="#fff" stroke-miterlimit="10" stroke-width="1"/>
        <line id="Línea_155" data-name="Línea 155" y2="5.433" transform="translate(128.576 28.725)" fill="none" stroke="#fff" stroke-miterlimit="10" stroke-width="1"/>
        <line id="Línea_156" data-name="Línea 156" x1="5.422" transform="translate(125.865 31.447)" fill="none" stroke="#fff" stroke-miterlimit="10" stroke-width="1"/>
        <line id="Línea_157" data-name="Línea 157" y2="5.433" transform="translate(144.457 28.725)" fill="none" stroke="#fff" stroke-miterlimit="10" stroke-width="1"/>
        <line id="Línea_158" data-name="Línea 158" x1="5.422" transform="translate(141.746 31.447)" fill="none" stroke="#fff" stroke-miterlimit="10" stroke-width="1"/>
        <line id="Línea_159" data-name="Línea 159" y2="5.433" transform="translate(160.339 28.725)" fill="none" stroke="#fff" stroke-miterlimit="10" stroke-width="1"/>
        <line id="Línea_160" data-name="Línea 160" x1="5.433" transform="translate(157.617 31.447)" fill="none" stroke="#fff" stroke-miterlimit="10" stroke-width="1"/>
        <line id="Línea_161" data-name="Línea 161" y2="5.433" transform="translate(80.954 44.617)" fill="none" stroke="#fff" stroke-miterlimit="10" stroke-width="1"/>
        <line id="Línea_162" data-name="Línea 162" x1="5.433" transform="translate(78.232 47.34)" fill="none" stroke="#fff" stroke-miterlimit="10" stroke-width="1"/>
        <line id="Línea_163" data-name="Línea 163" y2="5.433" transform="translate(96.824 44.617)" fill="none" stroke="#fff" stroke-miterlimit="10" stroke-width="1"/>
        <line id="Línea_164" data-name="Línea 164" x1="5.422" transform="translate(94.114 47.34)" fill="none" stroke="#fff" stroke-miterlimit="10" stroke-width="1"/>
        <line id="Línea_165" data-name="Línea 165" y2="5.433" transform="translate(112.706 44.617)" fill="none" stroke="#fff" stroke-miterlimit="10" stroke-width="1"/>
        <line id="Línea_166" data-name="Línea 166" x1="5.422" transform="translate(109.995 47.34)" fill="none" stroke="#fff" stroke-miterlimit="10" stroke-width="1"/>
        <line id="Línea_167" data-name="Línea 167" y2="5.433" transform="translate(128.576 44.617)" fill="none" stroke="#fff" stroke-miterlimit="10" stroke-width="1"/>
        <line id="Línea_168" data-name="Línea 168" x1="5.422" transform="translate(125.865 47.34)" fill="none" stroke="#fff" stroke-miterlimit="10" stroke-width="1"/>
        <line id="Línea_169" data-name="Línea 169" y2="5.433" transform="translate(144.457 44.617)" fill="none" stroke="#fff" stroke-miterlimit="10" stroke-width="1"/>
        <line id="Línea_170" data-name="Línea 170" x1="5.422" transform="translate(141.746 47.34)" fill="none" stroke="#fff" stroke-miterlimit="10" stroke-width="1"/>
        <line id="Línea_171" data-name="Línea 171" y2="5.433" transform="translate(160.339 44.617)" fill="none" stroke="#fff" stroke-miterlimit="10" stroke-width="1"/>
        <line id="Línea_172" data-name="Línea 172" x1="5.433" transform="translate(157.617 47.34)" fill="none" stroke="#fff" stroke-miterlimit="10" stroke-width="1"/>
        <line id="Línea_173" data-name="Línea 173" y2="5.422" transform="translate(80.954 60.521)" fill="none" stroke="#fff" stroke-miterlimit="10" stroke-width="1"/>
        <line id="Línea_174" data-name="Línea 174" x1="5.433" transform="translate(78.232 63.232)" fill="none" stroke="#fff" stroke-miterlimit="10" stroke-width="1"/>
        <line id="Línea_175" data-name="Línea 175" y2="5.422" transform="translate(96.824 60.521)" fill="none" stroke="#fff" stroke-miterlimit="10" stroke-width="1"/>
        <line id="Línea_176" data-name="Línea 176" x1="5.422" transform="translate(94.114 63.232)" fill="none" stroke="#fff" stroke-miterlimit="10" stroke-width="1"/>
        <line id="Línea_177" data-name="Línea 177" y2="5.422" transform="translate(112.706 60.521)" fill="none" stroke="#fff" stroke-miterlimit="10" stroke-width="1"/>
        <line id="Línea_178" data-name="Línea 178" x1="5.422" transform="translate(109.995 63.232)" fill="none" stroke="#fff" stroke-miterlimit="10" stroke-width="1"/>
        <line id="Línea_179" data-name="Línea 179" y2="5.422" transform="translate(128.576 60.521)" fill="none" stroke="#fff" stroke-miterlimit="10" stroke-width="1"/>
        <line id="Línea_180" data-name="Línea 180" x1="5.422" transform="translate(125.865 63.232)" fill="none" stroke="#fff" stroke-miterlimit="10" stroke-width="1"/>
        <line id="Línea_181" data-name="Línea 181" y2="5.422" transform="translate(144.457 60.521)" fill="none" stroke="#fff" stroke-miterlimit="10" stroke-width="1"/>
        <line id="Línea_182" data-name="Línea 182" x1="5.422" transform="translate(141.746 63.232)" fill="none" stroke="#fff" stroke-miterlimit="10" stroke-width="1"/>
        <line id="Línea_183" data-name="Línea 183" y2="5.422" transform="translate(160.339 60.521)" fill="none" stroke="#fff" stroke-miterlimit="10" stroke-width="1"/>
        <line id="Línea_184" data-name="Línea 184" x1="5.433" transform="translate(157.617 63.232)" fill="none" stroke="#fff" stroke-miterlimit="10" stroke-width="1"/>
        <line id="Línea_185" data-name="Línea 185" y2="5.433" transform="translate(706.214 110.402)" fill="none" stroke="#fff" stroke-miterlimit="10" stroke-width="1"/>
        <line id="Línea_186" data-name="Línea 186" x1="5.422" transform="translate(703.503 113.124)" fill="none" stroke="#fff" stroke-miterlimit="10" stroke-width="1"/>
        <line id="Línea_187" data-name="Línea 187" y2="5.433" transform="translate(722.084 110.402)" fill="none" stroke="#fff" stroke-miterlimit="10" stroke-width="1"/>
        <line id="Línea_188" data-name="Línea 188" x1="5.422" transform="translate(719.373 113.124)" fill="none" stroke="#fff" stroke-miterlimit="10" stroke-width="1"/>
        <line id="Línea_189" data-name="Línea 189" y2="5.433" transform="translate(706.214 126.295)" fill="none" stroke="#fff" stroke-miterlimit="10" stroke-width="1"/>
        <line id="Línea_190" data-name="Línea 190" x1="5.422" transform="translate(703.503 129.017)" fill="none" stroke="#fff" stroke-miterlimit="10" stroke-width="1"/>
        <line id="Línea_191" data-name="Línea 191" y2="5.433" transform="translate(722.084 126.295)" fill="none" stroke="#fff" stroke-miterlimit="10" stroke-width="1"/>
        <line id="Línea_192" data-name="Línea 192" x1="5.422" transform="translate(719.373 129.017)" fill="none" stroke="#fff" stroke-miterlimit="10" stroke-width="1"/>
        <line id="Línea_193" data-name="Línea 193" y2="5.422" transform="translate(2.711 430.402)" fill="none" stroke="#fff" stroke-miterlimit="10" stroke-width="1"/>
        <line id="Línea_194" data-name="Línea 194" x1="5.422" transform="translate(0 433.113)" fill="none" stroke="#fff" stroke-miterlimit="10" stroke-width="1"/>
        <line id="Línea_195" data-name="Línea 195" y2="5.422" transform="translate(18.592 430.402)" fill="none" stroke="#fff" stroke-miterlimit="10" stroke-width="1"/>
        <line id="Línea_196" data-name="Línea 196" x1="5.422" transform="translate(15.881 433.113)" fill="none" stroke="#fff" stroke-miterlimit="10" stroke-width="1"/>
        <line id="Línea_197" data-name="Línea 197" y2="5.433" transform="translate(2.711 446.295)" fill="none" stroke="#fff" stroke-miterlimit="10" stroke-width="1"/>
        <line id="Línea_198" data-name="Línea 198" x1="5.422" transform="translate(0 449.006)" fill="none" stroke="#fff" stroke-miterlimit="10" stroke-width="1"/>
        <line id="Línea_199" data-name="Línea 199" y2="5.433" transform="translate(18.592 446.295)" fill="none" stroke="#fff" stroke-miterlimit="10" stroke-width="1"/>
        <line id="Línea_200" data-name="Línea 200" x1="5.422" transform="translate(15.881 449.006)" fill="none" stroke="#fff" stroke-miterlimit="10" stroke-width="1"/>
        <path id="Trazado_99468" data-name="Trazado 99468" d="M784.617,416.459a2.158,2.158,0,1,1-.628-1.533,2.169,2.169,0,0,1,.628,1.533Z" transform="translate(-619.41 6.003)" fill="#fff"/>
        <path id="Trazado_99469" data-name="Trazado 99469" d="M798.677,416.459a2.158,2.158,0,1,1-.632-1.537,2.169,2.169,0,0,1,.632,1.537Z" transform="translate(-617.589 6.003)" fill="#fff"/>
        <path id="Trazado_99470" data-name="Trazado 99470" d="M812.725,416.459a2.146,2.146,0,1,1-.625-1.536A2.157,2.157,0,0,1,812.725,416.459Z" transform="translate(-615.766 6.003)" fill="#fff"/>
        <path id="Trazado_99471" data-name="Trazado 99471" d="M826.787,416.459a2.157,2.157,0,1,1-.632-1.537,2.169,2.169,0,0,1,.632,1.537Z" transform="translate(-613.948 6.003)" fill="#fff"/>
        <path id="Trazado_99472" data-name="Trazado 99472" d="M840.835,416.459a2.146,2.146,0,1,1-.624-1.536,2.157,2.157,0,0,1,.624,1.536Z" transform="translate(-612.125 6.003)" fill="#fff"/>
        <path id="Trazado_99473" data-name="Trazado 99473" d="M784.617,430.529a2.169,2.169,0,1,1-2.157-2.169,2.169,2.169,0,0,1,2.157,2.169Z" transform="translate(-619.41 7.825)" fill="#fff"/>
        <path id="Trazado_99474" data-name="Trazado 99474" d="M798.677,430.529a2.169,2.169,0,1,1-2.169-2.169,2.169,2.169,0,0,1,2.169,2.169Z" transform="translate(-617.589 7.825)" fill="#fff"/>
        <path id="Trazado_99475" data-name="Trazado 99475" d="M812.725,430.529A2.157,2.157,0,1,1,812.1,429a2.157,2.157,0,0,1,.628,1.533Z" transform="translate(-615.766 7.825)" fill="#fff"/>
        <path id="Trazado_99476" data-name="Trazado 99476" d="M826.787,430.529a2.169,2.169,0,1,1-2.169-2.169,2.169,2.169,0,0,1,2.169,2.169Z" transform="translate(-613.948 7.825)" fill="#fff"/>
        <path id="Trazado_99477" data-name="Trazado 99477" d="M840.835,430.529a2.157,2.157,0,1,1-.628-1.533,2.157,2.157,0,0,1,.628,1.533Z" transform="translate(-612.125 7.825)" fill="#fff"/>
        <path id="Trazado_99478" data-name="Trazado 99478" d="M784.617,444.6a2.169,2.169,0,1,1-2.157-2.157,2.169,2.169,0,0,1,2.157,2.157Z" transform="translate(-619.41 9.649)" fill="#fff"/>
        <path id="Trazado_99479" data-name="Trazado 99479" d="M798.677,444.6a2.169,2.169,0,1,1-2.169-2.157,2.168,2.168,0,0,1,2.169,2.157Z" transform="translate(-617.589 9.649)" fill="#fff"/>
        <path id="Trazado_99480" data-name="Trazado 99480" d="M812.725,444.6a2.157,2.157,0,1,1-2.157-2.157,2.157,2.157,0,0,1,2.157,2.157Z" transform="translate(-615.766 9.649)" fill="#fff"/>
        <path id="Trazado_99481" data-name="Trazado 99481" d="M826.787,444.6a2.169,2.169,0,1,1-2.169-2.157,2.169,2.169,0,0,1,2.169,2.157Z" transform="translate(-613.948 9.649)" fill="#fff"/>
        <path id="Trazado_99482" data-name="Trazado 99482" d="M840.835,444.6a2.157,2.157,0,1,1-2.157-2.157,2.157,2.157,0,0,1,2.157,2.157Z" transform="translate(-612.125 9.649)" fill="#fff"/>
        <path id="Trazado_99483" data-name="Trazado 99483" d="M1111.638,44.369a2.169,2.169,0,1,1-2.169-2.169,2.169,2.169,0,0,1,2.169,2.169Z" transform="translate(-577.047 -42.2)" fill="#fff"/>
        <path id="Trazado_99484" data-name="Trazado 99484" d="M1125.685,44.369a2.158,2.158,0,1,1-.628-1.533A2.158,2.158,0,0,1,1125.685,44.369Z" transform="translate(-575.224 -42.2)" fill="#fff"/>
        <path id="Trazado_99485" data-name="Trazado 99485" d="M1139.747,44.369a2.169,2.169,0,1,1-2.157-2.169,2.168,2.168,0,0,1,2.157,2.169Z" transform="translate(-573.405 -42.2)" fill="#fff"/>
        <path id="Trazado_99486" data-name="Trazado 99486" d="M1153.795,44.369a2.158,2.158,0,1,1-.628-1.533A2.158,2.158,0,0,1,1153.795,44.369Z" transform="translate(-571.582 -42.2)" fill="#fff"/>
        <path id="Trazado_99487" data-name="Trazado 99487" d="M1010.435,462.124a2.157,2.157,0,1,1-2.191-2.124,2.157,2.157,0,0,1,2.191,2.124Z" transform="translate(-590.154 11.924)" fill="#fff"/>
        <path id="Trazado_99488" data-name="Trazado 99488" d="M1024.5,462.129a2.169,2.169,0,1,1-2.157-2.169,2.168,2.168,0,0,1,2.157,2.169Z" transform="translate(-588.335 11.919)" fill="#fff"/>
        <path id="Trazado_99489" data-name="Trazado 99489" d="M1038.545,462.129a2.158,2.158,0,1,1-.628-1.533,2.158,2.158,0,0,1,.628,1.533Z" transform="translate(-586.512 11.919)" fill="#fff"/>
        <path id="Trazado_99490" data-name="Trazado 99490" d="M1052.607,462.129a2.169,2.169,0,1,1-2.157-2.169,2.168,2.168,0,0,1,2.157,2.169Z" transform="translate(-584.694 11.919)" fill="#fff"/>
      </g>
      <g id="Grupo_53375" data-name="Grupo 53375" transform="translate(534.4 19.863)">
        <path id="Trazado_99491" data-name="Trazado 99491" d="M901.634,80.44h-6.066L892.53,85.7l3.038,5.252h6.066l3.027-5.252Z" transform="translate(-553.971 -34.106)" fill="none" stroke="#fff" stroke-linecap="round" stroke-linejoin="round" stroke-width="1.5"/>
        <path id="Trazado_99492" data-name="Trazado 99492" d="M734.641,381.81h-8.087l-4.044,7.014,4.044,7h8.087l4.044-7Z" transform="translate(-575.997 4.935)" fill="none" stroke="#fff" stroke-linecap="round" stroke-linejoin="round" stroke-width="2"/>
        <path id="Trazado_99493" data-name="Trazado 99493" d="M612.042,84.11h-3.671L606.53,87.3l1.841,3.185h3.671l1.841-3.185Z" transform="translate(-591.021 -33.631)" fill="none" stroke="#fff" stroke-linecap="round" stroke-linejoin="round" stroke-width="0.91"/>
        <path id="Trazado_99494" data-name="Trazado 99494" d="M656.191,54.93a4.45,4.45,0,1,1-4.45-4.45,4.45,4.45,0,0,1,4.45,4.45Z" transform="translate(-585.741 -37.987)" fill="none" stroke="#fff" stroke-linecap="round" stroke-linejoin="round" stroke-width="1.5"/>
        <path id="Trazado_99495" data-name="Trazado 99495" d="M827.421,271.16a4.439,4.439,0,1,1-1.3-3.15,4.451,4.451,0,0,1,1.3,3.15Z" transform="translate(-563.559 -9.976)" fill="none" stroke="#fff" stroke-linecap="round" stroke-linejoin="round" stroke-width="1.5"/>
        <path id="Trazado_99496" data-name="Trazado 99496" d="M703.85,299.191a3.129,3.129,0,1,1-.912-2.231,3.14,3.14,0,0,1,.912,2.231Z" transform="translate(-579.227 -6.176)" fill="none" stroke="#fff" stroke-linecap="round" stroke-linejoin="round" stroke-width="1.06"/>
        <path id="Trazado_99497" data-name="Trazado 99497" d="M1041.563,42.56a3.152,3.152,0,1,1-3.152-3.14,3.152,3.152,0,0,1,3.152,3.14Z" transform="translate(-535.481 -39.42)" fill="none" stroke="#fff" stroke-linecap="round" stroke-linejoin="round" stroke-width="1.06"/>
        <path id="Trazado_99498" data-name="Trazado 99498" d="M599.1,401.36a3.152,3.152,0,1,1-3.14-3.14,3.152,3.152,0,0,1,3.14,3.14Z" transform="translate(-592.8 7.061)" fill="none" stroke="#fff" stroke-linecap="round" stroke-linejoin="round" stroke-width="1.06"/>
        <path id="Trazado_99499" data-name="Trazado 99499" d="M1255.781,441.618a4.45,4.45,0,1,1-1.279-3.19,4.45,4.45,0,0,1,1.279,3.19Z" transform="translate(-508.067 12.097)" fill="none" stroke="#fff" stroke-linecap="round" stroke-linejoin="round" stroke-width="1.5"/>
      </g>
      <ellipse id="Elipse_3990" data-name="Elipse 3990" cx="29.696" cy="29.73" rx="29.696" ry="29.73" transform="translate(952.569 48.645)" fill="none" stroke="#7b1fa2" stroke-miterlimit="10" stroke-width="3"/>
      <ellipse id="Elipse_3991" data-name="Elipse 3991" cx="50.265" cy="50.321" rx="50.265" ry="50.321" transform="translate(1198.924 323.36)" fill="none" stroke="#7b1fa2" stroke-miterlimit="10" stroke-width="5"/>
      <line id="Línea_201" data-name="Línea 201" y2="25.776" transform="translate(1219.414 438.292)" fill="none" stroke="#7b1fa2" stroke-miterlimit="10" stroke-width="5"/>
      <line id="Línea_202" data-name="Línea 202" x1="25.742" transform="translate(1206.535 451.179)" fill="none" stroke="#7b1fa2" stroke-miterlimit="10" stroke-width="5"/>
      <line id="Línea_203" data-name="Línea 203" y2="16.277" transform="translate(877.636 152.021)" fill="none" stroke="#7b1fa2" stroke-miterlimit="10" stroke-width="4"/>
      <line id="Línea_204" data-name="Línea 204" x1="16.254" transform="translate(869.503 160.164)" fill="none" stroke="#7b1fa2" stroke-miterlimit="10" stroke-width="4"/>
      <path id="Trazado_99500" data-name="Trazado 99500" d="M1281.857,295.414a5.874,5.874,0,1,1-5.874-5.874,5.874,5.874,0,0,1,5.874,5.874Z" transform="translate(30.343 12.845)" fill="none" stroke="#7b1fa2" stroke-miterlimit="10" stroke-width="2"/>
      <rect id="Rectángulo_5055" data-name="Rectángulo 5055" width="8.336" height="8.347" transform="translate(833.504 328.873)" fill="#15eaaf" stroke="#7b1fa2" stroke-miterlimit="10" stroke-width="1"/>
      <rect id="Rectángulo_5056" data-name="Rectángulo 5056" width="11.126" height="11.137" transform="translate(863.008 361.324)" fill="#15eaaf" stroke="#7b1fa2" stroke-miterlimit="10" stroke-width="1"/>
      <rect id="Rectángulo_5057" data-name="Rectángulo 5057" width="4.168" height="4.179" transform="translate(865.346 323.36)" fill="#15eaaf" stroke="#7b1fa2" stroke-miterlimit="10" stroke-width="1"/>
      <rect id="Rectángulo_5058" data-name="Rectángulo 5058" width="4.168" height="4.179" transform="translate(826.174 368.124)" fill="#15eaaf" stroke="#7b1fa2" stroke-miterlimit="10" stroke-width="1"/>
      <rect id="Rectángulo_5059" data-name="Rectángulo 5059" width="21.066" height="21.089" transform="translate(841.852 340.235)" fill="#15eaaf" stroke="#7b1fa2" stroke-miterlimit="10" stroke-width="1"/>
      <rect id="Rectángulo_5060" data-name="Rectángulo 5060" width="6.043" height="6.054" transform="translate(1247.065 78.927)" fill="#15eaaf" stroke="#7b1fa2" stroke-miterlimit="10" stroke-width="1"/>
      <rect id="Rectángulo_5061" data-name="Rectángulo 5061" width="1.694" height="1.694" transform="translate(1269.458 102.455)" fill="#15eaaf" stroke="#7b1fa2" stroke-miterlimit="10" stroke-width="1"/>
      <rect id="Rectángulo_5062" data-name="Rectángulo 5062" width="3.027" height="3.027" transform="translate(1271.152 74.928)" fill="#15eaaf" stroke="#7b1fa2" stroke-miterlimit="10" stroke-width="1"/>
      <rect id="Rectángulo_5063" data-name="Rectángulo 5063" width="3.027" height="3.027" transform="translate(1241.756 107.392)" fill="#15eaaf" stroke="#7b1fa2" stroke-miterlimit="10" stroke-width="1"/>
      <rect id="Rectángulo_5064" data-name="Rectángulo 5064" width="15.271" height="15.294" transform="translate(1253.119 87.161)" fill="#15eaaf" stroke="#7b1fa2" stroke-miterlimit="10" stroke-width="1"/>
    </g>
    <g id="OBJECTS" transform="translate(833.009 31.521)">
      <ellipse id="Elipse_4882" data-name="Elipse 4882" cx="33.152" cy="33.189" rx="33.152" ry="33.189" transform="translate(166.025 63.52)" fill="none" stroke="#34d9c7" stroke-miterlimit="10" stroke-width="3"/>
      <ellipse id="Elipse_4883" data-name="Elipse 4883" cx="56.114" cy="56.177" rx="56.114" ry="56.177" transform="translate(441.036 362.864)" fill="none" stroke="#34d9c7" stroke-miterlimit="10" stroke-width="5"/>
      <line id="Línea_275" data-name="Línea 275" y2="18.184" transform="translate(82.358 177.015)" fill="none" stroke="#34d9c7" stroke-miterlimit="10" stroke-width="4"/>
      <line id="Línea_276" data-name="Línea 276" x1="18.158" transform="translate(73.279 186.038)" fill="none" stroke="#34d9c7" stroke-miterlimit="10" stroke-width="4"/>
      <path id="Trazado_175799" data-name="Trazado 175799" d="M457.04,294.72a6.57,6.57,0,1,1-6.557-6.57A6.57,6.57,0,0,1,457.04,294.72Z" transform="translate(109.352 54.02)" fill="none" stroke="#34d9c7" stroke-miterlimit="10" stroke-width="2"/>
      <rect id="Rectángulo_39390" data-name="Rectángulo 39390" width="4.653" height="4.666" transform="translate(68.639 365.298)" fill="#34d9c7"/>
      <rect id="Rectángulo_39391" data-name="Rectángulo 39391" width="4.653" height="4.666" transform="translate(24.92 414.485)" fill="#34d9c7"/>
      <rect id="Rectángulo_39393" data-name="Rectángulo 39393" width="6.746" height="6.759" transform="translate(494.792 97.315)" fill="#34d9c7"/>
      <rect id="Rectángulo_39394" data-name="Rectángulo 39394" width="1.891" height="1.891" transform="translate(518.676 123.581)" fill="#34d9c7"/>
      <rect id="Rectángulo_39395" data-name="Rectángulo 39395" width="3.379" height="3.379" transform="translate(520.567 92.851)" fill="#34d9c7"/>
      <rect id="Rectángulo_39396" data-name="Rectángulo 39396" width="3.379" height="3.379" transform="translate(488.853 129.092)" fill="#34d9c7"/>
    </g>
  </g>
</svg>
