<svg xmlns="http://www.w3.org/2000/svg" xmlns:xlink="http://www.w3.org/1999/xlink" width="1328" height="541.36" viewBox="0 0 1328 541.36">
  <defs>
    <clipPath id="clip-path">
      <path id="Trazado_192991" data-name="Trazado 192991" d="M0,31H1328V510.03H0Z" transform="translate(0 0.306)" fill="rgba(252,161,152,0.45)"/>
    </clipPath>
    <linearGradient id="linear-gradient" x1="-0.05" y1="0.546" x2="0.954" y2="0.546" gradientUnits="objectBoundingBox">
      <stop offset="0" stop-color="#5c22c3"/>
      <stop offset="1" stop-color="#91b3fa"/>
    </linearGradient>
    <filter id="Trazado_253648" x="554.667" y="4.761" width="216.108" height="216.108" filterUnits="userSpaceOnUse">
      <feOffset dy="6" input="SourceAlpha"/>
      <feGaussianBlur stdDeviation="3" result="blur"/>
      <feFlood flood-opacity="0.161"/>
      <feComposite operator="in" in2="blur"/>
      <feComposite in="SourceGraphic"/>
    </filter>
    <filter id="Trazado_253654" x="266.363" y="297.761" width="216.108" height="216.108" filterUnits="userSpaceOnUse">
      <feOffset dy="6" input="SourceAlpha"/>
      <feGaussianBlur stdDeviation="3" result="blur-2"/>
      <feFlood flood-opacity="0.161"/>
      <feComposite operator="in" in2="blur-2"/>
      <feComposite in="SourceGraphic"/>
    </filter>
    <filter id="Trazado_253655" x="836.464" y="297.761" width="216.108" height="216.108" filterUnits="userSpaceOnUse">
      <feOffset dy="6" input="SourceAlpha"/>
      <feGaussianBlur stdDeviation="3" result="blur-3"/>
      <feFlood flood-opacity="0.161"/>
      <feComposite operator="in" in2="blur-3"/>
      <feComposite in="SourceGraphic"/>
    </filter>
  </defs>
  <g id="Grupo_130693" data-name="Grupo 130693" transform="translate(-136 -1130.239)">
    <g id="Enmascarar_grupo_172" data-name="Enmascarar grupo 172" transform="translate(136 1161.264)" opacity="0.1" clip-path="url(#clip-path)">
      <path id="Trazado_192990" data-name="Trazado 192990" d="M1551.855,944.891c260.867,97.726,548.558,153.887,839.59,86.347,577.311-133.979,576.673-104.385,576.673-104.385l-29.14,809.507H1024.737l29.14-867.654S1254.766,833.6,1551.855,944.891Z" transform="translate(-1213.775 -830.76)" fill="rgba(252,161,152,0.45)"/>
    </g>
    <path id="Trazado_192992" data-name="Trazado 192992" d="M83.2,430.841v-13.8A345.042,345.042,0,0,1,255.295,119.153l11.927-6.879a345.042,345.042,0,0,1,344,0l11.906,6.88a345.042,345.042,0,0,1,171.9,297.886v13.78C794.8,553.654,83.414,553.678,83.2,430.841ZM439.1,162.134a248.175,248.175,0,0,0-124.066,33.141l-11.927,6.88c-76.662,44.433-84.42,116.817-97.066,151.884v13.78c.137,88.611,470.1,88.593,470.245-.021V354.039c-4.267-35.067-24.519-107.471-101.193-151.906l-11.906-6.88A248.26,248.26,0,0,0,439.1,162.134Z" transform="translate(358.244 1111.428)" fill="url(#linear-gradient)"/>
    <g transform="matrix(1, 0, 0, 1, 136, 1130.24)" filter="url(#Trazado_253648)">
      <path id="Trazado_253648-2" data-name="Trazado 253648" d="M99.054,0A99.054,99.054,0,1,1,0,99.054,99.054,99.054,0,0,1,99.054,0Z" transform="translate(563.67 7.76)" fill="#f2f6fe"/>
    </g>
    <path id="Trazado_253649" data-name="Trazado 253649" d="M87.76,0A87.76,87.76,0,1,1,0,87.76,87.76,87.76,0,0,1,87.76,0Z" transform="translate(694.167 1303.032) rotate(-76.96)" fill="none" stroke="#34d9c7" stroke-width="3"/>
    <path id="Trazado_192993" data-name="Trazado 192993" d="M456.118,227.706a54.952,54.952,0,0,0-19.659,3.812,1.853,1.853,0,0,0-1,1.15,1.831,1.831,0,0,0,.149,1.342c-2.79-1.044-6.709-2.6-10.649-4.26-6.667-3-10.969-2.13-15.74,1.683H394.309c0-.6.149-1.15.192-1.683a1.811,1.811,0,0,0-.554-1.512c-2.13-2.13-8.967-3.195-14.185-3.749v3.749a43.427,43.427,0,0,1,10.948,2.258c-.98,8.094-5.431,22.513-6.794,26.858H376.29v3.706h8.967a1.853,1.853,0,0,0,1.768-1.278s.192-.6.426-1.342l1.363,1.427c1.661,1.725,3.365,3.493,4.515,4.473,6.9,5.772,15.186,11.991,16.847,13.078a14.163,14.163,0,0,0,6.56,2.13,6.39,6.39,0,0,0,4.26-1.235,5.708,5.708,0,0,0,4.26,0,7.242,7.242,0,0,0,3.855-3.557,7.136,7.136,0,0,0,4.664-.66,6.389,6.389,0,0,0,3.088-3.237,6.049,6.049,0,0,0,4.26-1.512,5.836,5.836,0,0,0,2-5.6l2.939-1.981c.192.639.383,1.235.49,1.661a1.874,1.874,0,0,0,1.789,1.363h7.838v-3.706h-6.39c-1.747-5.708-6.943-20.617-9.819-26.794a59.829,59.829,0,0,1,16.272-2.747Zm-17.465,38.7a2.13,2.13,0,0,1-2.236.469c-1.384-1.108-5.729-5.389-9.35-9.159a1.853,1.853,0,1,0-2.684,2.556c.852.895,6.39,6.624,9.031,8.9a2.619,2.619,0,0,1-1.342,1.491,2.833,2.833,0,0,1-2.9,0h0c-2.13-1.768-10.458-10.649-11.714-11.97a1.855,1.855,0,1,0-2.748,2.492s7.8,8.52,11.246,11.587a3.493,3.493,0,0,1-1.96,2,1.981,1.981,0,0,1-2.13-.319h0a76.521,76.521,0,0,1-6.39-6.241,1.853,1.853,0,1,0-2.7,2.535c1.193,1.278,3,3.195,5.069,5.069a4.887,4.887,0,0,1-.873,0,10.649,10.649,0,0,1-4.537-1.555c-1.3-.852-9.457-6.943-16.485-12.779-1-.831-2.7-2.62-4.26-4.26-1.108-1.15-2.13-2.13-2.811-2.854,1.555-5.09,3.791-12.928,5.005-19.3h11.374c-2.535,2.535-5.942,7.646-5.048,11.374a4.537,4.537,0,0,0,3.174,3.344,9.265,9.265,0,0,0,10.884-3.727,24.4,24.4,0,0,0,4.068-1.427c2.13,1.981,4.984,4.26,7.987,6.73,5.453,4.409,11.629,9.393,13.014,12.289a2.13,2.13,0,0,1-.681,2.662Zm2.769-6.134a83.612,83.612,0,0,0-12.886-11.8c-3.365-2.726-6.539-5.282-8.519-7.305a1.874,1.874,0,0,0-1.938-.447,45.535,45.535,0,0,0-6.39,2.556c-2.62,3.919-5.325,3.6-7.135,2.982-.575-.192-.682-.447-.745-.682-.383-1.619,1.555-5.41,4.089-7.944,6.028-6.006,9.137-7.519,15.676-4.6s12.439,5.069,14.355,5.751c2.13,5.282,5.112,13.482,7.007,19.169Z" transform="translate(855.402 1230.822)" fill="#fff"/>
    <g id="Grupo_130099" data-name="Grupo 130099" transform="translate(559.572 -184.855)">
      <path id="Trazado_192994" data-name="Trazado 192994" d="M109.485,221.9H102.52a1.15,1.15,0,0,0-1.15,1.15v6.965a1.15,1.15,0,0,0,1.15,1.15h6.965a1.15,1.15,0,0,0,1.15-1.15V223.05a1.15,1.15,0,0,0-1.15-1.15Zm-1.171,6.943h-4.622v-4.6h4.622Zm0,0" transform="translate(379.485 1287.583)" fill="#eee4f2"/>
      <path id="Trazado_192995" data-name="Trazado 192995" d="M109.485,216.46H102.52a1.15,1.15,0,0,0-1.15,1.15v6.965a1.15,1.15,0,0,0,1.15,1.15h6.965a1.15,1.15,0,0,0,1.15-1.15V217.61a1.15,1.15,0,0,0-1.15-1.15Zm-1.171,6.943h-4.622v-4.622h4.622Zm0,0" transform="translate(379.485 1281.038)" fill="#eee4f2"/>
      <path id="Trazado_192996" data-name="Trazado 192996" d="M104.045,221.9H97.08a1.15,1.15,0,0,0-1.15,1.15v6.965a1.15,1.15,0,0,0,1.15,1.15h6.965a1.15,1.15,0,0,0,1.15-1.15V223.05a1.15,1.15,0,0,0-1.15-1.15Zm-1.171,6.943H98.209v-4.6h4.622Zm0,0" transform="translate(373.054 1287.583)" fill="#eee4f2"/>
      <path id="Trazado_192997" data-name="Trazado 192997" d="M104.045,216.46H97.08a1.15,1.15,0,0,0-1.15,1.15v6.965a1.15,1.15,0,0,0,1.15,1.15h6.965a1.15,1.15,0,0,0,1.15-1.15V217.61a1.15,1.15,0,0,0-1.15-1.15Zm-1.171,6.943H98.209v-4.622h4.622Zm0,0" transform="translate(373.054 1281.038)" fill="#eee4f2"/>
      <path id="Trazado_192998" data-name="Trazado 192998" d="M104.045,227.34H97.08a1.15,1.15,0,0,0-1.15,1.15v6.965a1.15,1.15,0,0,0,1.15,1.15h6.965a1.15,1.15,0,0,0,1.15-1.15V228.49a1.15,1.15,0,0,0-1.15-1.15Zm-1.171,6.943H98.209v-4.622h4.622Zm0,0" transform="translate(373.054 1294.016)" fill="#eee4f2"/>
      <path id="Trazado_192999" data-name="Trazado 192999" d="M104.045,232.78H97.08a1.15,1.15,0,0,0-1.15,1.15v6.965a1.15,1.15,0,0,0,1.15,1.15h6.965a1.15,1.15,0,0,0,1.15-1.15V233.93a1.15,1.15,0,0,0-1.15-1.15Zm-1.171,6.858H98.209v-4.622h4.622Zm0,0" transform="translate(373.054 1300.447)" fill="#eee4f2"/>
      <path id="Trazado_193000" data-name="Trazado 193000" d="M110.68,244.236h6.965a1.171,1.171,0,0,0,1.15-1.171v-6.943a1.171,1.171,0,0,0-1.15-1.171H110.68a1.171,1.171,0,0,0-1.15,1.171v6.943a1.171,1.171,0,0,0,1.15,1.171Zm1.171-6.965h4.622v4.643h-4.622Zm0,0" transform="translate(389.132 1303.012)" fill="#eee4f2"/>
      <path id="Trazado_193001" data-name="Trazado 193001" d="M110.68,238.8h6.965a1.171,1.171,0,0,0,1.15-1.171v-6.943a1.171,1.171,0,0,0-1.15-1.171H110.68a1.171,1.171,0,0,0-1.15,1.171v6.943a1.171,1.171,0,0,0,1.15,1.171Zm1.171-6.965h4.622v4.643h-4.622Zm0,0" transform="translate(389.132 1296.58)" fill="#eee4f2"/>
      <path id="Trazado_193002" data-name="Trazado 193002" d="M109.841,231.165h6.943a1.171,1.171,0,0,0,1.171-1.15V223.05a1.171,1.171,0,0,0-1.171-1.15h-6.943a1.171,1.171,0,0,0-1.171,1.15v6.965A1.171,1.171,0,0,0,109.841,231.165Zm1.15-6.943h4.643v4.622h-4.643Zm0,0" transform="translate(388.116 1287.583)" fill="#eee4f2"/>
      <path id="Trazado_193003" data-name="Trazado 193003" d="M110.68,249.655h6.965a1.15,1.15,0,0,0,1.15-1.15v-6.943a1.171,1.171,0,0,0-1.15-1.171H110.68a1.171,1.171,0,0,0-1.15,1.171V248.5A1.15,1.15,0,0,0,110.68,249.655Zm1.171-6.943h4.622v4.643h-4.622Zm0,0" transform="translate(389.132 1309.557)" fill="#eee4f2"/>
      <path id="Trazado_193004" data-name="Trazado 193004" d="M105.24,244.236H112.2a1.171,1.171,0,0,0,1.15-1.171v-6.943a1.172,1.172,0,0,0-1.15-1.171H105.24a1.171,1.171,0,0,0-1.15,1.171v6.943a1.171,1.171,0,0,0,1.15,1.171Zm1.171-6.965h4.622v4.643h-4.622Zm0,0" transform="translate(382.701 1303.012)" fill="#eee4f2"/>
      <path id="Trazado_193005" data-name="Trazado 193005" d="M105.24,238.8H112.2a1.171,1.171,0,0,0,1.15-1.171v-6.943a1.172,1.172,0,0,0-1.15-1.171H105.24a1.171,1.171,0,0,0-1.15,1.171v6.943a1.171,1.171,0,0,0,1.15,1.171Zm1.171-6.965h4.622v4.643h-4.622Zm0,0" transform="translate(382.701 1296.58)" fill="#eee4f2"/>
      <path id="Trazado_193006" data-name="Trazado 193006" d="M105.24,254.3H112.2a1.15,1.15,0,0,0,1.15-1.15V241.561a1.171,1.171,0,0,0-1.15-1.171H105.24a1.172,1.172,0,0,0-1.15,1.171v11.587A1.15,1.15,0,0,0,105.24,254.3Zm1.171-11.587h4.622v9.265h-4.622Zm0,0" transform="translate(382.701 1309.557)" fill="#eee4f2"/>
      <path id="Trazado_193007" data-name="Trazado 193007" d="M157.574,282.909h-7.091V243.755a1.175,1.175,0,0,0-1.175-1.175H132.732v-27.1a1.2,1.2,0,0,0-1.175-1.2H100.778a1.2,1.2,0,0,0-1.175,1.2v67.433H88.966a1.186,1.186,0,1,0,0,2.371h68.607a1.186,1.186,0,1,0,0-2.371Zm-40.22-39.154v39.154H101.974V216.651h28.278v26.1H118.419a1.175,1.175,0,0,0-1.066,1.109Zm30.758,39.154H119.724V245.06h28.387Z" transform="translate(363.407 1278.575)" fill="#eee4f2"/>
      <path id="Trazado_193008" data-name="Trazado 193008" d="M103.9,240.39H96.96a1.172,1.172,0,0,0-1.15,1.171v11.587a1.15,1.15,0,0,0,1.15,1.15H103.9a1.171,1.171,0,0,0,1.171-1.15V241.561A1.171,1.171,0,0,0,103.9,240.39Zm-1.171,11.587h-4.6V242.52h4.6Z" transform="translate(372.912 1309.557)" fill="#eee4f2"/>
      <path id="Trazado_193009" data-name="Trazado 193009" d="M122,219.52H107.33v16.656h17.039V221.948A2.428,2.428,0,0,0,122,219.52Zm-.277,16.421H109.694V222.268h12.034Z" transform="translate(386.683 1284.809)" fill="#eee4f2"/>
    </g>
    <g transform="matrix(1, 0, 0, 1, 136, 1130.24)" filter="url(#Trazado_253654)">
      <path id="Trazado_253654-2" data-name="Trazado 253654" d="M99.054,0A99.054,99.054,0,1,1,0,99.054,99.054,99.054,0,0,1,99.054,0Z" transform="translate(275.36 300.76)" fill="#f2f6fe"/>
    </g>
    <path id="Trazado_253653" data-name="Trazado 253653" d="M83.209,0A83.209,83.209,0,1,1,0,83.209,83.209,83.209,0,0,1,83.209,0Z" transform="translate(392.863 1530.175) rotate(-45)" fill="none" stroke="#34d9c7" stroke-width="3"/>
    <g transform="matrix(1, 0, 0, 1, 136, 1130.24)" filter="url(#Trazado_253655)">
      <path id="Trazado_253655-2" data-name="Trazado 253655" d="M99.054,0A99.054,99.054,0,1,1,0,99.054,99.054,99.054,0,0,1,99.054,0Z" transform="translate(845.46 300.76)" fill="#f2f6fe"/>
    </g>
    <path id="Trazado_253656" data-name="Trazado 253656" d="M83.209,0A83.209,83.209,0,1,1,0,83.209,83.209,83.209,0,0,1,83.209,0Z" transform="translate(979.964 1591.299) rotate(-76.47)" fill="none" stroke="#34d9c7" stroke-width="3"/>
    <path id="Trazado_253650" data-name="Trazado 253650" d="M18.732,19.813H13.1L12.111,23H7.717L13.975,5.938h3.867L24.146,23H19.729ZM14.08,16.637h3.668l-1.84-5.918Zm22.9.129a7.728,7.728,0,0,1-1.289,4.793,4.318,4.318,0,0,1-3.633,1.676A3.747,3.747,0,0,1,28.939,21.7L28.775,23H25.236V5h3.949v6.34a3.615,3.615,0,0,1,2.848-1.254,4.319,4.319,0,0,1,3.656,1.7,7.768,7.768,0,0,1,1.289,4.781Zm-3.961-.252a5.155,5.155,0,0,0-.486-2.6,1.639,1.639,0,0,0-1.494-.778,1.891,1.891,0,0,0-1.852,1.018v5.031a1.9,1.9,0,0,0,1.875,1.006,1.677,1.677,0,0,0,1.77-1.357A9.745,9.745,0,0,0,33.018,16.514ZM45.861,23a4.459,4.459,0,0,1-.375-1.137,3.672,3.672,0,0,1-3.047,1.371,4.5,4.5,0,0,1-3.047-1.084,3.45,3.45,0,0,1-1.254-2.725,3.546,3.546,0,0,1,1.523-3.117,7.761,7.761,0,0,1,4.43-1.055h1.219v-.671q0-1.755-1.512-1.755a1.236,1.236,0,0,0-1.406,1.39H38.443a3.54,3.54,0,0,1,1.564-2.985A6.575,6.575,0,0,1,44,10.086,5.764,5.764,0,0,1,47.83,11.27a4.115,4.115,0,0,1,1.441,3.246v5.613a5.748,5.748,0,0,0,.539,2.672V23Zm-2.473-2.578a2.2,2.2,0,0,0,1.225-.316,1.983,1.983,0,0,0,.7-.715V17.363H44.162q-2.062,0-2.062,1.852a1.131,1.131,0,0,0,.363.873A1.315,1.315,0,0,0,43.389,20.422ZM58.1,19.438a.912.912,0,0,0-.527-.809,8.021,8.021,0,0,0-2-.633,9.138,9.138,0,0,1-2.437-.861,4.083,4.083,0,0,1-1.465-1.295,3.092,3.092,0,0,1-.5-1.746A3.5,3.5,0,0,1,52.6,11.217a5.938,5.938,0,0,1,3.773-1.131A6.579,6.579,0,0,1,60.4,11.223a3.555,3.555,0,0,1,1.523,2.988H57.967q0-1.523-1.605-1.523a1.591,1.591,0,0,0-1.043.346,1.07,1.07,0,0,0-.422.861.982.982,0,0,0,.516.855,4.872,4.872,0,0,0,1.646.539,14.228,14.228,0,0,1,1.986.5q2.859.984,2.859,3.527a3.321,3.321,0,0,1-1.541,2.824,6.758,6.758,0,0,1-3.99,1.09,6.9,6.9,0,0,1-2.906-.586,4.86,4.86,0,0,1-1.992-1.594,3.609,3.609,0,0,1-.715-2.121h3.691a1.526,1.526,0,0,0,.586,1.283,2.41,2.41,0,0,0,1.441.4,1.9,1.9,0,0,0,1.213-.328A1.05,1.05,0,0,0,58.1,19.438ZM68.35,7.168V10.32h2.086v2.742H68.35v5.8a1.481,1.481,0,0,0,.258,1,1.383,1.383,0,0,0,1.02.281,5.793,5.793,0,0,0,.984-.07v2.824a7.288,7.288,0,0,1-2.227.34,4.137,4.137,0,0,1-3.012-.961,3.939,3.939,0,0,1-.973-2.918V13.063H62.783V10.32H64.4V7.168Zm9.773,16.066a6.518,6.518,0,0,1-4.723-1.74,6.009,6.009,0,0,1-1.8-4.529v-.328a7.787,7.787,0,0,1,.721-3.434,5.274,5.274,0,0,1,2.1-2.3,6.35,6.35,0,0,1,3.281-.814,5.489,5.489,0,0,1,4.219,1.658,6.516,6.516,0,0,1,1.547,4.623V17.9H75.615a2.846,2.846,0,0,0,.926,1.676,2.755,2.755,0,0,0,1.852.609,3.549,3.549,0,0,0,2.93-1.312l1.8,2.133a5.045,5.045,0,0,1-2.092,1.623A7.069,7.069,0,0,1,78.123,23.234Zm-.445-10.1q-1.734,0-2.062,2.3H79.6v-.3a1.956,1.956,0,0,0-.48-1.471A1.912,1.912,0,0,0,77.678,13.133Zm12.738,7.055a1.756,1.756,0,0,0,1.289-.451,1.654,1.654,0,0,0,.445-1.26h3.7A4.384,4.384,0,0,1,94.359,21.9a5.558,5.558,0,0,1-3.85,1.336A5.627,5.627,0,0,1,86.15,21.5a6.834,6.834,0,0,1-1.594-4.8v-.164a7.723,7.723,0,0,1,.709-3.393,5.162,5.162,0,0,1,2.045-2.262,6.1,6.1,0,0,1,3.164-.791A5.488,5.488,0,0,1,94.4,11.457a4.863,4.863,0,0,1,1.453,3.715h-3.7a2.168,2.168,0,0,0-.48-1.512,1.658,1.658,0,0,0-1.289-.527q-1.535,0-1.793,1.957a13.809,13.809,0,0,0-.082,1.711,5.424,5.424,0,0,0,.457,2.648A1.582,1.582,0,0,0,90.416,20.188ZM101.689,23H97.729V10.32h3.961Zm-4.2-15.961A1.778,1.778,0,0,1,98.1,5.648a2.579,2.579,0,0,1,3.164,0,1.778,1.778,0,0,1,.609,1.391,1.778,1.778,0,0,1-.609,1.391,2.579,2.579,0,0,1-3.164,0A1.778,1.778,0,0,1,97.494,7.039Zm10.359,3.281.129,1.488a4.36,4.36,0,0,1,3.621-1.723A3.21,3.21,0,0,1,114.85,12a4.22,4.22,0,0,1,3.727-1.91q3.855,0,3.961,4.664V23h-3.961V15a2.417,2.417,0,0,0-.328-1.418,1.4,1.4,0,0,0-1.2-.445,1.871,1.871,0,0,0-1.746,1.043l.012.164V23h-3.961V15.02a2.541,2.541,0,0,0-.316-1.441,1.393,1.393,0,0,0-1.207-.445,1.894,1.894,0,0,0-1.734,1.043V23H104.15V10.32ZM128.959,23H125V10.32h3.961Zm-4.2-15.961a1.778,1.778,0,0,1,.609-1.391,2.579,2.579,0,0,1,3.164,0,1.778,1.778,0,0,1,.609,1.391,1.778,1.778,0,0,1-.609,1.391,2.579,2.579,0,0,1-3.164,0A1.778,1.778,0,0,1,124.764,7.039Zm12.762,16.2a6.518,6.518,0,0,1-4.723-1.74,6.009,6.009,0,0,1-1.8-4.529v-.328a7.787,7.787,0,0,1,.721-3.434,5.274,5.274,0,0,1,2.1-2.3,6.35,6.35,0,0,1,3.281-.814,5.489,5.489,0,0,1,4.219,1.658,6.516,6.516,0,0,1,1.547,4.623V17.9h-7.852a2.846,2.846,0,0,0,.926,1.676,2.755,2.755,0,0,0,1.852.609,3.549,3.549,0,0,0,2.93-1.312l1.8,2.133a5.045,5.045,0,0,1-2.092,1.623A7.069,7.069,0,0,1,137.525,23.234Zm-.445-10.1q-1.734,0-2.062,2.3H139v-.3a1.956,1.956,0,0,0-.48-1.471A1.912,1.912,0,0,0,137.08,13.133Zm11-2.812.129,1.488a4.3,4.3,0,0,1,3.621-1.723,3.618,3.618,0,0,1,2.959,1.184,5.635,5.635,0,0,1,1.014,3.563V23h-3.961V15a2.14,2.14,0,0,0-.387-1.412,1.789,1.789,0,0,0-1.406-.451,1.883,1.883,0,0,0-1.723.914V23h-3.949V10.32Zm14.508-3.152V10.32h2.086v2.742h-2.086v5.8a1.481,1.481,0,0,0,.258,1,1.383,1.383,0,0,0,1.02.281,5.793,5.793,0,0,0,.984-.07v2.824a7.288,7.288,0,0,1-2.227.34,4.137,4.137,0,0,1-3.012-.961,3.939,3.939,0,0,1-.973-2.918V13.063h-1.617V10.32h1.617V7.168Zm2.789,9.375a7.484,7.484,0,0,1,.738-3.381,5.28,5.28,0,0,1,2.121-2.279,6.388,6.388,0,0,1,3.246-.8,5.83,5.83,0,0,1,4.488,1.764,6.768,6.768,0,0,1,1.641,4.8v.141a6.566,6.566,0,0,1-1.646,4.705,5.846,5.846,0,0,1-4.459,1.74,5.912,5.912,0,0,1-4.348-1.623,6.348,6.348,0,0,1-1.77-4.4Zm3.949.246a4.718,4.718,0,0,0,.551,2.578,1.835,1.835,0,0,0,1.629.82q2.109,0,2.156-3.246v-.4q0-3.41-2.18-3.41-1.98,0-2.145,2.941Z" transform="translate(705.667 1221)" fill="#12263f"/>
    <path id="Trazado_253658" data-name="Trazado 253658" d="M12.727,17.211V23H8.613V5.938h6.809a7.93,7.93,0,0,1,3.463.721,5.431,5.431,0,0,1,2.332,2.051,5.6,5.6,0,0,1,.826,3.018,4.937,4.937,0,0,1-1.787,3.99,7.415,7.415,0,0,1-4.9,1.494Zm0-3.176h2.7a2.542,2.542,0,0,0,1.822-.6,2.221,2.221,0,0,0,.627-1.687,2.745,2.745,0,0,0-.645-1.91,2.282,2.282,0,0,0-1.758-.727H12.727Zm19-.141-1.3-.094a2.336,2.336,0,0,0-2.391,1.172V23H24.082V10.32h3.7l.129,1.629a3.058,3.058,0,0,1,2.777-1.863,3.851,3.851,0,0,1,1.1.141Zm.5,2.648a7.484,7.484,0,0,1,.738-3.381,5.28,5.28,0,0,1,2.121-2.279,6.388,6.388,0,0,1,3.246-.8A5.83,5.83,0,0,1,42.82,11.85a6.768,6.768,0,0,1,1.641,4.8v.141a6.566,6.566,0,0,1-1.646,4.705,5.846,5.846,0,0,1-4.459,1.74,5.912,5.912,0,0,1-4.348-1.623,6.348,6.348,0,0,1-1.77-4.4Zm3.949.246a4.718,4.718,0,0,0,.551,2.578,1.835,1.835,0,0,0,1.629.82q2.109,0,2.156-3.246v-.4q0-3.41-2.18-3.41-1.98,0-2.145,2.941Zm9.527-.223A7.746,7.746,0,0,1,47,11.82a4.282,4.282,0,0,1,3.633-1.734A3.641,3.641,0,0,1,53.5,11.422V5h3.961V23H53.906l-.2-1.359a3.739,3.739,0,0,1-3.094,1.594A4.274,4.274,0,0,1,47.027,21.5,7.991,7.991,0,0,1,45.7,16.566Zm3.949.246q0,3.375,1.969,3.375a1.944,1.944,0,0,0,1.875-1.1V14.258a1.892,1.892,0,0,0-1.852-1.125q-1.828,0-1.98,2.953Zm17.6,4.816a4.072,4.072,0,0,1-3.387,1.605,3.993,3.993,0,0,1-3.158-1.213,5.1,5.1,0,0,1-1.072-3.486V10.32h3.949v8.238a1.419,1.419,0,0,0,1.582,1.629,2.064,2.064,0,0,0,1.934-.973V10.32h3.973V23h-3.7ZM78.6,20.188a1.756,1.756,0,0,0,1.289-.451,1.654,1.654,0,0,0,.445-1.26h3.7A4.384,4.384,0,0,1,82.541,21.9a5.558,5.558,0,0,1-3.85,1.336A5.627,5.627,0,0,1,74.332,21.5a6.834,6.834,0,0,1-1.594-4.8v-.164a7.723,7.723,0,0,1,.709-3.393,5.162,5.162,0,0,1,2.045-2.262,6.1,6.1,0,0,1,3.164-.791,5.488,5.488,0,0,1,3.926,1.371,4.863,4.863,0,0,1,1.453,3.715h-3.7a2.168,2.168,0,0,0-.48-1.512,1.658,1.658,0,0,0-1.289-.527q-1.535,0-1.793,1.957a13.809,13.809,0,0,0-.082,1.711,5.424,5.424,0,0,0,.457,2.648A1.582,1.582,0,0,0,78.6,20.188Zm12.469,0a1.756,1.756,0,0,0,1.289-.451,1.654,1.654,0,0,0,.445-1.26h3.7A4.384,4.384,0,0,1,95.01,21.9a5.558,5.558,0,0,1-3.85,1.336A5.627,5.627,0,0,1,86.8,21.5a6.834,6.834,0,0,1-1.594-4.8v-.164a7.723,7.723,0,0,1,.709-3.393,5.162,5.162,0,0,1,2.045-2.262,6.1,6.1,0,0,1,3.164-.791,5.488,5.488,0,0,1,3.926,1.371A4.863,4.863,0,0,1,96.5,15.172H92.8a2.168,2.168,0,0,0-.48-1.512,1.658,1.658,0,0,0-1.289-.527q-1.535,0-1.793,1.957a13.809,13.809,0,0,0-.082,1.711,5.424,5.424,0,0,0,.457,2.648A1.582,1.582,0,0,0,91.066,20.188ZM102.34,23H98.379V10.32h3.961Zm-4.2-15.961a1.778,1.778,0,0,1,.609-1.391,2.579,2.579,0,0,1,3.164,0,1.778,1.778,0,0,1,.609,1.391,1.778,1.778,0,0,1-.609,1.391,2.579,2.579,0,0,1-3.164,0A1.778,1.778,0,0,1,98.145,7.039Zm6.129,9.5a7.484,7.484,0,0,1,.738-3.381,5.28,5.28,0,0,1,2.121-2.279,6.388,6.388,0,0,1,3.246-.8,5.83,5.83,0,0,1,4.488,1.764,6.768,6.768,0,0,1,1.641,4.8v.141a6.566,6.566,0,0,1-1.646,4.705,5.846,5.846,0,0,1-4.459,1.74,5.912,5.912,0,0,1-4.348-1.623,6.348,6.348,0,0,1-1.77-4.4Zm3.949.246a4.718,4.718,0,0,0,.551,2.578,1.835,1.835,0,0,0,1.629.82q2.109,0,2.156-3.246v-.4q0-3.41-2.18-3.41-1.98,0-2.145,2.941ZM110.918,5h4.172l-3.258,3.68-3.223-.006Zm10.957,5.32L122,11.809a4.3,4.3,0,0,1,3.621-1.723,3.618,3.618,0,0,1,2.959,1.184,5.635,5.635,0,0,1,1.014,3.563V23h-3.961V15a2.14,2.14,0,0,0-.387-1.412,1.789,1.789,0,0,0-1.406-.451,1.883,1.883,0,0,0-1.723.914V23h-3.949V10.32Z" transform="translate(1011.464 1514)" fill="#12263f"/>
    <path id="Trazado_253659" data-name="Trazado 253659" d="M4.306,23V5.938H9.8a8.085,8.085,0,0,1,4.066,1.025,7.208,7.208,0,0,1,2.818,2.895,8.739,8.739,0,0,1,1.025,4.189v.785a8.79,8.79,0,0,1-.99,4.2,7.239,7.239,0,0,1-2.789,2.906A7.907,7.907,0,0,1,9.919,23ZM8.419,9.113V19.836h1.43a3.2,3.2,0,0,0,2.719-1.26,6.173,6.173,0,0,0,.949-3.744v-.738a6.123,6.123,0,0,0-.949-3.727A3.256,3.256,0,0,0,9.8,9.113ZM23.806,23H19.845V10.32h3.961Zm-4.2-15.961a1.778,1.778,0,0,1,.609-1.391,2.579,2.579,0,0,1,3.164,0,1.778,1.778,0,0,1,.609,1.391,1.778,1.778,0,0,1-.609,1.391,2.579,2.579,0,0,1-3.164,0A1.778,1.778,0,0,1,19.611,7.039Zm13.266,12.4a.912.912,0,0,0-.527-.809,8.021,8.021,0,0,0-2-.633,9.138,9.138,0,0,1-2.437-.861,4.083,4.083,0,0,1-1.465-1.295,3.092,3.092,0,0,1-.5-1.746,3.5,3.5,0,0,1,1.441-2.877,5.938,5.938,0,0,1,3.773-1.131,6.579,6.579,0,0,1,4.031,1.137,3.555,3.555,0,0,1,1.523,2.988H32.748q0-1.523-1.605-1.523a1.591,1.591,0,0,0-1.043.346,1.07,1.07,0,0,0-.422.861.982.982,0,0,0,.516.855,4.872,4.872,0,0,0,1.646.539,14.228,14.228,0,0,1,1.986.5q2.859.984,2.859,3.527a3.321,3.321,0,0,1-1.541,2.824,6.758,6.758,0,0,1-3.99,1.09,6.9,6.9,0,0,1-2.906-.586,4.86,4.86,0,0,1-1.992-1.594,3.609,3.609,0,0,1-.715-2.121h3.691a1.526,1.526,0,0,0,.586,1.283,2.41,2.41,0,0,0,1.441.4,1.9,1.9,0,0,0,1.213-.328A1.05,1.05,0,0,0,32.876,19.438ZM43.13,7.168V10.32h2.086v2.742H43.13v5.8a1.481,1.481,0,0,0,.258,1,1.383,1.383,0,0,0,1.02.281,5.793,5.793,0,0,0,.984-.07v2.824a7.288,7.288,0,0,1-2.227.34,4.137,4.137,0,0,1-3.012-.961,3.939,3.939,0,0,1-.973-2.918V13.063H37.564V10.32h1.617V7.168Zm11.309,6.727-1.3-.094a2.336,2.336,0,0,0-2.391,1.172V23H46.8V10.32h3.7l.129,1.629a3.058,3.058,0,0,1,2.777-1.863,3.851,3.851,0,0,1,1.1.141ZM60.029,23H56.068V10.32h3.961Zm-4.2-15.961a1.778,1.778,0,0,1,.609-1.391,2.579,2.579,0,0,1,3.164,0,1.778,1.778,0,0,1,.609,1.391,1.778,1.778,0,0,1-.609,1.391,2.579,2.579,0,0,1-3.164,0A1.778,1.778,0,0,1,55.833,7.039Zm18.4,9.727a7.728,7.728,0,0,1-1.289,4.793,4.318,4.318,0,0,1-3.633,1.676A3.747,3.747,0,0,1,66.193,21.7L66.029,23H62.49V5h3.949v6.34a3.615,3.615,0,0,1,2.848-1.254,4.319,4.319,0,0,1,3.656,1.7,7.768,7.768,0,0,1,1.289,4.781Zm-3.961-.252a5.155,5.155,0,0,0-.486-2.6,1.639,1.639,0,0,0-1.494-.778,1.891,1.891,0,0,0-1.852,1.018v5.031a1.9,1.9,0,0,0,1.875,1.006,1.677,1.677,0,0,0,1.77-1.357A9.745,9.745,0,0,0,70.271,16.514Zm13.254,5.115a4.072,4.072,0,0,1-3.387,1.605,3.993,3.993,0,0,1-3.158-1.213,5.1,5.1,0,0,1-1.072-3.486V10.32h3.949v8.238a1.419,1.419,0,0,0,1.582,1.629,2.064,2.064,0,0,0,1.934-.973V10.32h3.973V23h-3.7Zm11.344-1.441a1.756,1.756,0,0,0,1.289-.451,1.654,1.654,0,0,0,.445-1.26h3.7A4.384,4.384,0,0,1,98.812,21.9a5.558,5.558,0,0,1-3.85,1.336A5.627,5.627,0,0,1,90.6,21.5a6.834,6.834,0,0,1-1.594-4.8v-.164a7.723,7.723,0,0,1,.709-3.393,5.162,5.162,0,0,1,2.045-2.262,6.1,6.1,0,0,1,3.164-.791,5.488,5.488,0,0,1,3.926,1.371,4.863,4.863,0,0,1,1.453,3.715H96.6a2.168,2.168,0,0,0-.48-1.512,1.658,1.658,0,0,0-1.289-.527q-1.535,0-1.793,1.957a13.809,13.809,0,0,0-.082,1.711,5.424,5.424,0,0,0,.457,2.648A1.582,1.582,0,0,0,94.869,20.188ZM106.142,23h-3.961V10.32h3.961Zm-4.2-15.961a1.778,1.778,0,0,1,.609-1.391,2.579,2.579,0,0,1,3.164,0,1.778,1.778,0,0,1,.609,1.391,1.778,1.778,0,0,1-.609,1.391,2.579,2.579,0,0,1-3.164,0A1.778,1.778,0,0,1,101.947,7.039Zm6.129,9.5a7.484,7.484,0,0,1,.738-3.381,5.28,5.28,0,0,1,2.121-2.279,6.388,6.388,0,0,1,3.246-.8,5.83,5.83,0,0,1,4.488,1.764,6.768,6.768,0,0,1,1.641,4.8v.141a6.566,6.566,0,0,1-1.646,4.705,5.846,5.846,0,0,1-4.459,1.74,5.912,5.912,0,0,1-4.348-1.623,6.348,6.348,0,0,1-1.77-4.4Zm3.949.246a4.718,4.718,0,0,0,.551,2.578,1.835,1.835,0,0,0,1.629.82q2.109,0,2.156-3.246v-.4q0-3.41-2.18-3.41-1.98,0-2.145,2.941ZM114.72,5h4.172l-3.258,3.68-3.223-.006Zm10.957,5.32.129,1.488a4.3,4.3,0,0,1,3.621-1.723,3.618,3.618,0,0,1,2.959,1.184,5.635,5.635,0,0,1,1.014,3.563V23h-3.961V15a2.14,2.14,0,0,0-.387-1.412,1.789,1.789,0,0,0-1.406-.451,1.883,1.883,0,0,0-1.723.914V23h-3.949V10.32Z" transform="translate(442.363 1514)" fill="#12263f"/>
    <g id="Grupo_130097" data-name="Grupo 130097" transform="translate(-18.723 180.887)">
      <g id="noun_Customs_Clearance_1328100" data-name="noun_Customs Clearance_1328100" transform="translate(544.279 1126.113)" opacity="0.6">
        <g id="Grupo_129218" data-name="Grupo 129218">
          <g id="Grupo_129208" data-name="Grupo 129208">
            <path id="Trazado_204514" data-name="Trazado 204514" d="M71.1,14.134,63.764,1.726A3.621,3.621,0,0,0,60.636,0h-35.5A3.621,3.621,0,0,0,22.01,1.726L14.781,14.134c-.108.108-.108.432-.108.539V28.052H1.079A1.019,1.019,0,0,0,0,29.131v41a1.019,1.019,0,0,0,1.079,1.079H37.331A1.019,1.019,0,0,0,38.41,70.13V51.9H66.678a4.559,4.559,0,0,0,4.531-4.531V14.673C71.209,14.565,71.1,14.242,71.1,14.134Zm-36.36,1.618h16.4v8.2h-16.4ZM61.93,2.913,68.3,13.7H52.975L49.738,2.158H60.743A1.464,1.464,0,0,1,61.93,2.913ZM47.473,2.158l3.345,11.437H35.065L38.41,2.158Zm-23.521.755a1.327,1.327,0,0,1,1.187-.755H36.144L32.8,13.594H17.586ZM2.158,69.051V30.21h21.9v9.71A1.019,1.019,0,0,0,25.139,41H36.252v28.16H2.158Zm32.26-30.318H26.11V31.4Zm34.633,8.631a2.4,2.4,0,0,1-2.374,2.374H38.41V39.812a1.435,1.435,0,0,0-.324-.863L25.894,28.16a1.027,1.027,0,0,0-.755-.216H16.831V15.752H32.584v9.279a1.019,1.019,0,0,0,1.079,1.079H52.22A1.019,1.019,0,0,0,53.3,25.031V15.752H69.051Z" fill="#fff"/>
          </g>
          <g id="Grupo_129209" data-name="Grupo 129209" transform="translate(40.028 30.426)">
            <path id="Trazado_204515" data-name="Trazado 204515" d="M43.9,28.524h0c-.108-.108-.216-.216-.324-.216a.917.917,0,0,0-.863,0c-.108.108-.216.108-.324.216h0l-4.963,5.071a1.068,1.068,0,0,0,1.51,1.51l3.129-3.237V43.413a1.079,1.079,0,0,0,2.158,0V31.976l3.129,3.237a1.068,1.068,0,1,0,1.51-1.51Z" transform="translate(-37.1 -28.2)" fill="#fff"/>
          </g>
          <g id="Grupo_129210" data-name="Grupo 129210" transform="translate(55.28 30.534)">
            <path id="Trazado_204516" data-name="Trazado 204516" d="M51.521,35.1a1.043,1.043,0,0,0,1.51,0L56.16,31.86V43.4a1.079,1.079,0,0,0,2.158,0V31.968l3.129,3.237a1.068,1.068,0,0,0,1.51-1.51l-4.963-5.071h0a1.043,1.043,0,0,0-1.51,0h0l-4.963,5.071A1.008,1.008,0,0,0,51.521,35.1Z" transform="translate(-51.236 -28.3)" fill="#fff"/>
          </g>
          <g id="Grupo_129211" data-name="Grupo 129211" transform="translate(17.802 52.436)">
            <path id="Trazado_204517" data-name="Trazado 204517" d="M32.36,48.6H17.579A1.019,1.019,0,0,0,16.5,49.679V61.871a1.019,1.019,0,0,0,1.079,1.079H32.36a1.019,1.019,0,0,0,1.079-1.079V49.679A1.081,1.081,0,0,0,32.36,48.6ZM31.281,60.684H18.658V50.65H31.281Z" transform="translate(-16.5 -48.6)" fill="#fff"/>
          </g>
          <g id="Grupo_129212" data-name="Grupo 129212" transform="translate(20.857 55.78)">
            <path id="Trazado_204518" data-name="Trazado 204518" d="M21.887,59.252a1.092,1.092,0,0,0,.755.432,1.225,1.225,0,0,0,.863-.324l6.15-5.826a1.068,1.068,0,0,0-1.51-1.51l-5.179,4.963-1.618-2.482a1.092,1.092,0,1,0-1.834,1.187Z" transform="translate(-19.331 -51.7)" fill="#fff"/>
          </g>
          <g id="Grupo_129213" data-name="Grupo 129213" transform="translate(3.884 35.173)">
            <path id="Trazado_204519" data-name="Trazado 204519" d="M4.679,34.758H20.215a1.079,1.079,0,1,0,0-2.158H4.679a1.079,1.079,0,1,0,0,2.158Z" transform="translate(-3.6 -32.6)" fill="#fff"/>
          </g>
          <g id="Grupo_129214" data-name="Grupo 129214" transform="translate(3.884 41.97)">
            <path id="Trazado_204520" data-name="Trazado 204520" d="M4.679,41.058H32.623a1.079,1.079,0,1,0,0-2.158H4.679a1.079,1.079,0,1,0,0,2.158Z" transform="translate(-3.6 -38.9)" fill="#fff"/>
          </g>
          <g id="Grupo_129215" data-name="Grupo 129215" transform="translate(3.884 48.659)">
            <path id="Trazado_204521" data-name="Trazado 204521" d="M4.679,47.258H32.623a1.079,1.079,0,0,0,0-2.158H4.679A1.019,1.019,0,0,0,3.6,46.179,1.081,1.081,0,0,0,4.679,47.258Z" transform="translate(-3.6 -45.1)" fill="#fff"/>
          </g>
          <g id="Grupo_129216" data-name="Grupo 129216" transform="translate(3.884 55.672)">
            <path id="Trazado_204522" data-name="Trazado 204522" d="M14.821,51.6H4.679a1.079,1.079,0,1,0,0,2.158H14.821a1.079,1.079,0,1,0,0-2.158Z" transform="translate(-3.6 -51.6)" fill="#fff"/>
          </g>
          <g id="Grupo_129217" data-name="Grupo 129217" transform="translate(3.884 62.685)">
            <path id="Trazado_204523" data-name="Trazado 204523" d="M14.821,58.1H4.679a1.079,1.079,0,0,0,0,2.158H14.821a1.079,1.079,0,1,0,0-2.158Z" transform="translate(-3.6 -58.1)" fill="#fff"/>
          </g>
        </g>
      </g>
    </g>
    <path id="Trazado_253657" data-name="Trazado 253657" d="M41.886,35.929H147.467c-11.767-10.4-11.6-18.5.743-28.783H41.886V0L0,21.536,41.886,43.073Z" transform="translate(872.877 1542.865) rotate(-180)" fill="#cfddfc"/>
    <path id="Trazado_253651" data-name="Trazado 253651" d="M41.886,35.929H147.467c-11.767-10.4-11.6-18.5.743-28.783H41.886V0L0,21.536,41.886,43.073Z" transform="translate(612.83 1458.354) rotate(-60)" fill="#cfddfc"/>
    <path id="Trazado_253652" data-name="Trazado 253652" d="M41.886,7.145H147.467c-11.767,10.4-11.6,18.5.743,28.783H41.886v7.146L0,21.537,41.886,0Z" transform="translate(944.16 1479.891) rotate(-120)" fill="#cfddfc"/>
    <g id="noun_Logistics_1016553" transform="translate(737.076 1372.613)" opacity="0.7">
      <path id="Trazado_204509" data-name="Trazado 204509" d="M63.362,54.678c.033-.057.06-.115.091-.172.172-.3.335-.611.494-.922.141-.274.273-.553.4-.832.22-.472.423-.95.609-1.436.135-.349.269-.7.386-1.056.1-.311.2-.626.287-.944.112-.388.21-.779.3-1.173.059-.256.126-.51.177-.77.123-.617.212-1.24.285-1.864.024-.2.044-.408.062-.615.066-.7.11-1.4.11-2.109s-.044-1.409-.106-2.108c-.018-.2-.038-.41-.062-.615-.073-.626-.163-1.248-.285-1.864-.051-.26-.119-.514-.177-.77-.091-.393-.19-.783-.3-1.173-.091-.317-.185-.631-.287-.944-.119-.355-.252-.706-.386-1.056q-.283-.73-.609-1.436c-.13-.28-.262-.558-.4-.832-.159-.311-.322-.62-.494-.922-.033-.057-.06-.115-.091-.172-.016-.027-.04-.049-.059-.077a23.728,23.728,0,0,0-41.041,0c-.018.027-.042.048-.059.077-.033.057-.06.115-.091.172-.172.3-.335.611-.494.922-.141.274-.273.553-.4.832-.22.472-.423.95-.609,1.436-.135.349-.269.7-.386,1.056-.1.311-.2.626-.287.944-.112.388-.21.779-.3,1.173-.059.256-.126.51-.177.77-.123.617-.212,1.24-.285,1.864-.024.2-.044.408-.062.615-.066.7-.11,1.4-.11,2.109s.044,1.409.106,2.108c.018.2.038.41.062.615.073.626.163,1.248.285,1.864.051.26.119.514.177.77.091.393.19.783.3,1.173.091.317.185.631.287.944.119.355.252.706.386,1.056q.283.73.609,1.436c.13.28.262.558.4.832.159.311.322.62.494.922.033.057.06.115.091.172.016.027.04.049.059.077a23.728,23.728,0,0,0,41.041,0C63.321,54.728,63.345,54.706,63.362,54.678Zm-.66-9.155c-.082.6-.185,1.191-.322,1.78-.037.159-.082.317-.123.474-.154.595-.331,1.182-.538,1.76-.048.132-.1.265-.145.4q-.362.944-.816,1.853c-.024.048-.046.1-.07.146H52.975a50.177,50.177,0,0,0,.748-7.318H62.8c-.013.143-.009.287-.026.43C62.756,45.2,62.723,45.362,62.7,45.523ZM42.784,62.91c-1.967,0-4.062-2.794-5.505-7.318H48.291C46.846,60.116,44.751,62.91,42.784,62.91ZM36.346,51.932a45.369,45.369,0,0,1-.842-7.318h14.56a45.576,45.576,0,0,1-.842,7.318Zm-11.535-.146q-.456-.908-.816-1.853c-.049-.132-.1-.263-.145-.4-.207-.578-.384-1.165-.538-1.76-.04-.157-.086-.315-.123-.474-.137-.587-.238-1.182-.322-1.78-.022-.161-.055-.318-.073-.481-.016-.143-.013-.287-.026-.43h9.078A50.176,50.176,0,0,0,32.6,51.93H24.882C24.856,51.885,24.834,51.835,24.811,51.786Zm-1.943-11.74c.082-.6.185-1.191.322-1.78.037-.159.082-.317.123-.474.154-.595.331-1.182.538-1.76.048-.132.1-.265.145-.4q.362-.944.816-1.853c.024-.048.046-.1.07-.146h7.713a50.177,50.177,0,0,0-.748,7.318H22.769c.013-.143.009-.287.026-.43C22.813,40.364,22.846,40.207,22.868,40.046ZM42.784,22.659c1.967,0,4.062,2.794,5.505,7.318H37.277C38.723,25.453,40.818,22.659,42.784,22.659Zm6.438,10.977a45.368,45.368,0,0,1,.842,7.318H35.5a45.575,45.575,0,0,1,.842-7.318Zm11.535.146q.456.908.816,1.853c.049.132.1.263.145.4.207.578.384,1.165.538,1.76.04.157.086.315.123.474.137.587.238,1.182.322,1.78.022.161.055.318.073.481.016.143.013.287.026.43H53.722a50.177,50.177,0,0,0-.748-7.318h7.713C60.712,33.684,60.734,33.734,60.758,33.783ZM58.3,29.977H52.126a25.285,25.285,0,0,0-2.545-6.113A20.214,20.214,0,0,1,58.3,29.977ZM35.989,23.865a25.358,25.358,0,0,0-2.545,6.113H27.273A20.193,20.193,0,0,1,35.989,23.865ZM27.271,55.591h6.171A25.285,25.285,0,0,0,35.988,61.7,20.215,20.215,0,0,1,27.271,55.591ZM49.579,61.7a25.358,25.358,0,0,0,2.545-6.113H58.3A20.193,20.193,0,0,1,49.579,61.7Z" transform="translate(15.328 14.103)" fill="#fe7062"/>
      <path id="Trazado_204510" data-name="Trazado 204510" d="M77.591,2H57.466a1.828,1.828,0,0,0-1.83,1.83V9.318H51.977a1.825,1.825,0,0,0-1.1.366l-7.318,5.489a1.831,1.831,0,0,0-.732,1.464V20.3A1.828,1.828,0,0,0,41,22.125v7.318a1.828,1.828,0,0,0,1.83,1.83h1.83a5.489,5.489,0,1,0,10.977,0h7.318a5.489,5.489,0,1,0,10.977,0h3.659a1.828,1.828,0,0,0,1.83-1.83V3.83A1.828,1.828,0,0,0,77.591,2ZM59.3,5.659H75.762V20.3H59.3V5.659ZM46.489,17.551l6.1-4.574h3.05V20.3H46.489ZM50.148,33.1a1.83,1.83,0,0,1-1.83-1.83,1.782,1.782,0,0,1,.379-1.059,1.854,1.854,0,0,1,2.9,0,1.782,1.782,0,0,1,.379,1.059A1.83,1.83,0,0,1,50.148,33.1Zm18.3,0a1.83,1.83,0,0,1-1.83-1.83,1.782,1.782,0,0,1,.379-1.059,1.854,1.854,0,0,1,2.9,0,1.782,1.782,0,0,1,.379,1.059A1.83,1.83,0,0,1,68.444,33.1Zm7.318-5.489H72.516c-.013-.015-.029-.024-.042-.038a5.464,5.464,0,0,0-.732-.662c-.035-.027-.066-.059-.1-.084a5.449,5.449,0,0,0-.906-.529c-.022-.011-.042-.026-.064-.035a5.463,5.463,0,0,0-1.015-.337c-.022-.005-.042-.015-.064-.02a5.536,5.536,0,0,0-1.147-.124,5.474,5.474,0,0,0-1.143.124c-.022.005-.042.015-.064.02a5.463,5.463,0,0,0-1.015.337c-.024.011-.044.026-.066.037a5.449,5.449,0,0,0-.906.529c-.037.026-.066.057-.1.084a5.464,5.464,0,0,0-.732.662c-.013.015-.029.024-.042.038H54.22c-.013-.015-.029-.024-.042-.038a5.463,5.463,0,0,0-.732-.662c-.035-.027-.066-.059-.1-.084a5.449,5.449,0,0,0-.906-.529c-.022-.011-.042-.026-.064-.035a5.463,5.463,0,0,0-1.015-.337c-.022-.005-.042-.015-.064-.02a5.415,5.415,0,0,0-1.147-.126A5.474,5.474,0,0,0,49,25.909c-.022.005-.042.015-.064.02a5.463,5.463,0,0,0-1.015.337c-.024.011-.044.026-.066.037a5.449,5.449,0,0,0-.906.529c-.037.026-.066.057-.1.084a5.463,5.463,0,0,0-.732.662c-.013.015-.029.024-.042.038H44.659V23.957h31.1Z" transform="translate(33.579)" fill="#fe7062"/>
      <path id="Trazado_204511" data-name="Trazado 204511" d="M7.936,15.078A3.658,3.658,0,0,0,2.8,19.423l2.28,7.432a3.64,3.64,0,0,0,3.5,2.587h5.7a1.846,1.846,0,0,0,.644-.115l11.846-4.444-1.5,13.506A1.83,1.83,0,0,0,27.9,40.227l7.318-3.659a1.829,1.829,0,0,0,.917-1.057l5.249-15.747,14.638-7.318a3.659,3.659,0,0,0,.245-6.411l-6.29-3.773a1.828,1.828,0,0,0-1.723-.084L34.481,8.7,20.529,2.291a1.814,1.814,0,0,0-1.182-.119L12.029,3.881a1.825,1.825,0,0,0-.684,3.238l10.218,7.7L14.3,18.26Zm11.634-9.2L29.86,10.6,24.85,12.711l-8.178-6.16ZM48.935,5.9l5.45,3.269L55.327,7.6l-.94,1.568L39.072,16.829a1.829,1.829,0,0,0-.917,1.057L32.906,33.634l-3.632,1.815,1.458-13.124a1.831,1.831,0,0,0-1.82-2.031,1.877,1.877,0,0,0-.644.115L13.942,25.783H8.58L6.3,18.351l7.157,3.579a1.816,1.816,0,0,0,1.6.016Z" transform="translate(1.757 0.001)" fill="#fe7062"/>
      <path id="Trazado_204512" data-name="Trazado 204512" d="M76.762,43H43.83A1.828,1.828,0,0,0,42,44.83v7.318a1.828,1.828,0,0,0,1.83,1.83h1.83V75.932a1.828,1.828,0,0,0,1.83,1.83H73.1a1.828,1.828,0,0,0,1.83-1.83V53.977h1.83a1.828,1.828,0,0,0,1.83-1.83V44.83A1.828,1.828,0,0,0,76.762,43ZM71.273,74.1H49.318V53.977H71.273Zm3.659-23.784H45.659V46.659H74.932Z" transform="translate(34.409 34.012)" fill="#fe7062"/>
      <rect id="Rectángulo_41466" data-name="Rectángulo 41466" width="12" height="3" transform="translate(89 92)" fill="#fe7062"/>
      <rect id="Rectángulo_41467" data-name="Rectángulo 41467" width="4" height="3" transform="translate(56 103)" fill="#fe7062"/>
      <rect id="Rectángulo_41468" data-name="Rectángulo 41468" width="5" height="3" transform="translate(63 103)" fill="#fe7062"/>
      <rect id="Rectángulo_41469" data-name="Rectángulo 41469" width="3" height="3" transform="translate(71 101)" fill="#fe7062"/>
      <rect id="Rectángulo_41470" data-name="Rectángulo 41470" width="4" height="3" transform="translate(102 70)" fill="#fe7062"/>
      <rect id="Rectángulo_41471" data-name="Rectángulo 41471" width="3" height="4" transform="translate(104 62)" fill="#fe7062"/>
      <rect id="Rectángulo_41472" data-name="Rectángulo 41472" width="3" height="4" transform="translate(104 55)" fill="#fe7062"/>
      <rect id="Rectángulo_41473" data-name="Rectángulo 41473" width="3" height="5" transform="translate(104 47)" fill="#fe7062"/>
      <rect id="Rectángulo_41474" data-name="Rectángulo 41474" width="4" height="3" transform="translate(102 41)" fill="#fe7062"/>
      <rect id="Rectángulo_41475" data-name="Rectángulo 41475" width="4" height="4" transform="translate(73 9)" fill="#fe7062"/>
      <rect id="Rectángulo_41476" data-name="Rectángulo 41476" width="4" height="3" transform="translate(65 8)" fill="#fe7062"/>
      <rect id="Rectángulo_41477" data-name="Rectángulo 41477" width="4" height="4" transform="translate(14 33)" fill="#fe7062"/>
      <rect id="Rectángulo_41478" data-name="Rectángulo 41478" width="3" height="3" transform="translate(11 41)" fill="#fe7062"/>
      <rect id="Rectángulo_41479" data-name="Rectángulo 41479" width="3" height="5" transform="translate(9 47)" fill="#fe7062"/>
      <rect id="Rectángulo_41480" data-name="Rectángulo 41480" width="3" height="4" transform="translate(9 55)" fill="#fe7062"/>
      <rect id="Rectángulo_41481" data-name="Rectángulo 41481" width="3" height="4" transform="translate(9 62)" fill="#fe7062"/>
      <path id="Trazado_204513" data-name="Trazado 204513" d="M44.755,76.415,47.7,63.182a1.829,1.829,0,0,0-1.786-2.227h-31.1V56.6l13.625-6.813a1.829,1.829,0,0,0,0-3.273L13.8,39.192a1.829,1.829,0,0,0-2.647,1.637V60.955H5.659a1.829,1.829,0,0,0-1.786,2.227l2.94,13.233a3.642,3.642,0,0,1-1.154-2.653H2a7.288,7.288,0,0,0,12.807,4.79,7.222,7.222,0,0,0,10.977,0,7.222,7.222,0,0,0,10.977,0,7.288,7.288,0,0,0,12.807-4.79H45.91A3.642,3.642,0,0,1,44.755,76.415ZM14.807,52.506V43.79l8.716,4.358ZM38.591,73.762H34.932a3.659,3.659,0,1,1-7.318,0H23.955a3.659,3.659,0,1,1-7.318,0H12.977a3.66,3.66,0,0,1-2.254,3.376L7.941,64.614H43.628L40.845,77.138A3.66,3.66,0,0,1,38.591,73.762Z" transform="translate(1.226 30.694)" fill="#fe7062"/>
    </g>
    <g id="Grupo_130100" data-name="Grupo 130100">
      <path id="Trazado_193024" data-name="Trazado 193024" d="M337.669,97.6c-11.293,0-20.975,7.515-23.005,17.859s4.176,20.563,14.744,24.278v11.651a1.329,1.329,0,0,0,1.374,1.279h1.374v2.557a1.329,1.329,0,0,0,1.374,1.279h8.261a1.329,1.329,0,0,0,1.374-1.279v-2.557h1.374a1.329,1.329,0,0,0,1.374-1.279V139.737c10.565-3.714,16.769-13.924,14.747-24.266s-11.7-17.861-22.988-17.871Zm4.121,52.491a1.426,1.426,0,0,0-.978.381,1.233,1.233,0,0,0-.4.916v2.557H334.9v-2.557a1.234,1.234,0,0,0-.4-.916,1.426,1.426,0,0,0-.978-.381h-1.374V143.7h11.008v6.393Zm2.322-12.479a1.292,1.292,0,0,0-.948,1.206v2.323H332.155v-2.323a1.274,1.274,0,0,0-.948-1.206c-9.632-2.95-15.535-11.974-13.931-21.292s10.243-16.173,20.383-16.173S356.437,107,358.042,116.32s-4.3,18.342-13.931,21.292Zm0,0" transform="translate(455.171 1467.116)" fill="#eee4f2"/>
      <path id="Trazado_193025" data-name="Trazado 193025" d="M327.184,100.993a1.491,1.491,0,0,0,1.491-1.512V93.432a1.491,1.491,0,0,0-1.491-1.512,1.512,1.512,0,0,0-1.534,1.512v6.049a1.512,1.512,0,0,0,1.534,1.512Zm0,0" transform="translate(465.658 1460.698)" fill="#eee4f2"/>
      <path id="Trazado_193026" data-name="Trazado 193026" d="M347.441,109h-6.049a1.512,1.512,0,0,0,0,3.024h6.049a1.512,1.512,0,0,0,0-3.024Zm0,0" transform="translate(479.377 1475.023)" fill="#eee4f2"/>
      <path id="Trazado_193027" data-name="Trazado 193027" d="M316.172,109H310.1a1.512,1.512,0,0,0,0,3.024h6.07a1.512,1.512,0,0,0,0-3.024Zm0,0" transform="translate(448.74 1475.023)" fill="#eee4f2"/>
      <path id="Trazado_193028" data-name="Trazado 193028" d="M340.422,97.306l-4.26,4.26a1.512,1.512,0,0,0,0,2.13,1.491,1.491,0,0,0,2.13,0l4.26-4.26a1.512,1.512,0,0,0-2.13-2.13Zm0,0" transform="translate(474.681 1466.388)" fill="#eee4f2"/>
      <path id="Trazado_193029" data-name="Trazado 193029" d="M318.307,119.436l-4.26,4.26a1.491,1.491,0,0,0,0,2.13,1.47,1.47,0,0,0,1.065.447,1.491,1.491,0,0,0,1.065-.447l4.26-4.26a1.512,1.512,0,0,0-2.13-2.13Zm0,0" transform="translate(454.401 1483.04)" fill="#eee4f2"/>
      <path id="Trazado_193030" data-name="Trazado 193030" d="M338.236,119.436a1.512,1.512,0,0,0-2.13,2.13l4.26,4.26a1.512,1.512,0,0,0,2.13-2.13Zm0,0" transform="translate(474.717 1483.05)" fill="#eee4f2"/>
      <path id="Trazado_193031" data-name="Trazado 193031" d="M318.3,103.767a1.47,1.47,0,0,0,1.065.447,1.491,1.491,0,0,0,1.065-.447,1.512,1.512,0,0,0,0-2.13l-4.26-4.26a1.491,1.491,0,0,0-2.13,0,1.512,1.512,0,0,0,0,2.13Zm0,0" transform="translate(454.406 1466.359)" fill="#eee4f2"/>
    </g>
  </g>
</svg>
