<svg xmlns="http://www.w3.org/2000/svg" xmlns:xlink="http://www.w3.org/1999/xlink" width="179" height="179" viewBox="0 0 179 179">
  <defs>
    <filter id="Elipse_4062" x="0" y="0" width="179" height="179" filterUnits="userSpaceOnUse">
      <feOffset dy="3" input="SourceAlpha"/>
      <feGaussianBlur stdDeviation="3" result="blur"/>
      <feFlood flood-opacity="0.161"/>
      <feComposite operator="in" in2="blur"/>
      <feComposite in="SourceGraphic"/>
    </filter>
  </defs>
  <g id="Grupo_130694" data-name="Grupo 130694" transform="translate(-695.334 -2130)">
    <g id="Grupo_130126" data-name="Grupo 130126" transform="translate(419.334 1273.727)">
      <g transform="matrix(1, 0, 0, 1, 276, 856.27)" filter="url(#Elipse_4062)">
        <circle id="Elipse_4062-2" data-name="Elipse 4062" cx="80.5" cy="80.5" r="80.5" transform="translate(9 6)" fill="#fff"/>
      </g>
      <circle id="Elipse_4063" data-name="Elipse 4063" cx="62" cy="62" r="62" transform="translate(302 881.273)" fill="#ba68c8"/>
    </g>
    <g id="noun_cargo_3082634" transform="translate(749.334 2185.513)">
      <g id="Grupo_128908" data-name="Grupo 128908" transform="translate(0 0)">
        <path id="Trazado_197050" data-name="Trazado 197050" d="M70.5,31.483H54.25V2.9a1.2,1.2,0,0,0-1.2-1.2h-34.6a1.2,1.2,0,0,0-1.2,1.2V31.483H1.3a1.2,1.2,0,0,0-1.2,1.2v28.88a2,2,0,0,0,2.106,2.109H69.593a2.545,2.545,0,0,0,1.751-.954,1.208,1.208,0,0,0,.355-.851V32.686A1.2,1.2,0,0,0,70.5,31.483ZM56.356,33.889V38.1H50.039V33.889ZM32.59,4.107h6.318l0,4.212L32.59,8.312Zm-12.936,0H30.183V8.619a1.994,1.994,0,0,0,2.106,2.106h6.919a1.994,1.994,0,0,0,2.106-2.106V4.107H51.844V31.483H19.654ZM15.443,33.889H21.76V38.1H15.443ZM34.7,61.265H2.507V33.889H13.036V38.4a1.993,1.993,0,0,0,2.106,2.106h6.919A1.993,1.993,0,0,0,24.167,38.4V33.889H34.7Zm34.6,0H37.1V33.889H47.632V38.4a1.993,1.993,0,0,0,2.106,2.106h6.919A1.993,1.993,0,0,0,58.763,38.4V33.889H69.292Z" transform="translate(-0.1 -1.7)" fill="#e6ecf8"/>
        <path id="Trazado_197051" data-name="Trazado 197051" d="M19.062,19.009a.966.966,0,0,0,.057,1.342,1.011,1.011,0,0,0,1.14.2v2.792c0,.337,0,.505.006,1.125A1,1,0,0,0,21.279,25.5h.009a1.012,1.012,0,0,0,1-1,2.935,2.935,0,0,0,0-.3v-.918c0-.948,0-1.594,0-2.744a.976.976,0,0,0,1.194-.217,1.015,1.015,0,0,0-.09-1.441c-.445-.451-.893-.906-1.351-1.348a1.019,1.019,0,0,0-1.432-.078C20.121,17.917,19.613,18.425,19.062,19.009Z" transform="translate(37.492 29.432)" fill="#e6ecf8"/>
        <path id="Trazado_197052" data-name="Trazado 197052" d="M21.752,20.571a.71.71,0,0,0,.406-.072v3.941a1.052,1.052,0,0,0,.391.86.967.967,0,0,0,.593.2,1.092,1.092,0,0,0,.289-.039,1.016,1.016,0,0,0,.743-1.068l0-3.848a.968.968,0,0,0,1.164-.19,1.022,1.022,0,0,0-.066-1.477c-.439-.442-.878-.89-1.327-1.321a1.043,1.043,0,0,0-1.486-.069c-.454.427-.915.887-1.453,1.453A.932.932,0,0,0,20.873,20,1.006,1.006,0,0,0,21.752,20.571Z" transform="translate(41.408 29.44)" fill="#e6ecf8"/>
        <path id="Trazado_197053" data-name="Trazado 197053" d="M28.422,20.253H19.959a1.2,1.2,0,0,0-.869.328.961.961,0,0,0-.274.7,1.024,1.024,0,0,0,1.14.981q2.107,0,4.215,0l1.071,0c1.068,0,2.139,0,3.21,0a1.018,1.018,0,0,0,.9-.421.989.989,0,0,0,.072-1.05A1.04,1.04,0,0,0,28.422,20.253Z" transform="translate(37.488 35.561)" fill="#e6ecf8"/>
        <path id="Trazado_197054" data-name="Trazado 197054" d="M7.562,19.009a.966.966,0,0,0,.057,1.342,1.012,1.012,0,0,0,1.14.2v2.792c0,.337,0,.505.006,1.125A1,1,0,0,0,9.779,25.5h.009a1.012,1.012,0,0,0,1-1,2.934,2.934,0,0,0,0-.3v-.918c0-.948,0-1.594,0-2.744a.977.977,0,0,0,1.194-.217,1.015,1.015,0,0,0-.09-1.441c-.445-.451-.893-.906-1.351-1.348a1.019,1.019,0,0,0-1.432-.078C8.621,17.917,8.113,18.425,7.562,19.009Z" transform="translate(14.396 29.432)" fill="#e6ecf8"/>
        <path id="Trazado_197055" data-name="Trazado 197055" d="M10.252,20.571a.715.715,0,0,0,.406-.072v3.941a1.052,1.052,0,0,0,.391.86.967.967,0,0,0,.593.2,1.092,1.092,0,0,0,.289-.039,1.016,1.016,0,0,0,.743-1.068l0-3.848a.969.969,0,0,0,1.164-.19,1.022,1.022,0,0,0-.066-1.477c-.439-.442-.878-.89-1.327-1.321a1.043,1.043,0,0,0-1.486-.069c-.454.427-.915.887-1.453,1.453A.932.932,0,0,0,9.373,20,1.006,1.006,0,0,0,10.252,20.571Z" transform="translate(18.313 29.44)" fill="#e6ecf8"/>
        <path id="Trazado_197056" data-name="Trazado 197056" d="M16.922,20.253H8.459a1.2,1.2,0,0,0-.869.328.961.961,0,0,0-.274.7,1.024,1.024,0,0,0,1.14.981q2.107,0,4.215,0l1.071,0c1.068,0,2.139,0,3.21,0a1.018,1.018,0,0,0,.9-.421.989.989,0,0,0,.072-1.05A1.04,1.04,0,0,0,16.922,20.253Z" transform="translate(14.392 35.561)" fill="#e6ecf8"/>
        <path id="Trazado_197057" data-name="Trazado 197057" d="M14.56,10.671v2.768c0,.352,0,.514.009,1.146a1,1,0,0,0,1.014,1.041h.006a1.02,1.02,0,0,0,1-1.008c.006-.069,0-.141,0-.214l0-3.739a.975.975,0,0,0,1.191-.217,1.009,1.009,0,0,0-.09-1.441c-.445-.454-.893-.909-1.351-1.351a1.034,1.034,0,0,0-1.432-.078c-.5.463-1.011.972-1.555,1.552a.975.975,0,0,0,.057,1.342A1.024,1.024,0,0,0,14.56,10.671Z" transform="translate(26.047 9.599)" fill="#e6ecf8"/>
        <path id="Trazado_197058" data-name="Trazado 197058" d="M16.047,10.7a.924.924,0,0,0,.406-.072v3.941a1.063,1.063,0,0,0,.394.86.958.958,0,0,0,.59.2,1.092,1.092,0,0,0,.289-.039,1.021,1.021,0,0,0,.746-1.068V10.666a.974.974,0,0,0,1.167-.187A1.019,1.019,0,0,0,19.572,9c-.439-.448-.878-.89-1.324-1.327a1.029,1.029,0,0,0-1.483-.066c-.445.412-.909.875-1.456,1.453a.933.933,0,0,0-.132,1.065A.96.96,0,0,0,16.047,10.7Z" transform="translate(29.966 9.596)" fill="#e6ecf8"/>
        <path id="Trazado_197059" data-name="Trazado 197059" d="M14.252,12.395h5.072c1.143,0,2.283,0,3.427,0a1.01,1.01,0,0,0,.9-.418.972.972,0,0,0,.075-1.05,1.032,1.032,0,0,0-1-.554H14.258a1.2,1.2,0,0,0-.869.334.971.971,0,0,0-.271.7A1.017,1.017,0,0,0,14.252,12.395Z" transform="translate(26.044 15.724)" fill="#e6ecf8"/>
      </g>
    </g>
  </g>
</svg>
