<svg xmlns="http://www.w3.org/2000/svg" xmlns:xlink="http://www.w3.org/1999/xlink" width="179" height="179" viewBox="0 0 179 179">
  <defs>
    <filter id="Elipse_4062" x="0" y="0" width="179" height="179" filterUnits="userSpaceOnUse">
      <feOffset dy="3" input="SourceAlpha"/>
      <feGaussianBlur stdDeviation="3" result="blur"/>
      <feFlood flood-opacity="0.161"/>
      <feComposite operator="in" in2="blur"/>
      <feComposite in="SourceGraphic"/>
    </filter>
  </defs>
  <g id="Grupo_130695" data-name="Grupo 130695" transform="translate(-695.334 -2306)">
    <g id="Grupo_130127" data-name="Grupo 130127" transform="translate(419.334 1449.727)">
      <g transform="matrix(1, 0, 0, 1, 276, 856.27)" filter="url(#Elipse_4062)">
        <circle id="Elipse_4062-2" data-name="Elipse 4062" cx="80.5" cy="80.5" r="80.5" transform="translate(9 6)" fill="#fff"/>
      </g>
      <circle id="Elipse_4063" data-name="Elipse 4063" cx="62" cy="62" r="62" transform="translate(302 881.273)" fill="#ba68c8"/>
    </g>
    <g id="Grupo_130082" data-name="Grupo 130082" transform="translate(661.177 1959.65)">
      <path id="Trazado_192994" data-name="Trazado 192994" d="M109.485,221.9H102.52a1.15,1.15,0,0,0-1.15,1.15v6.965a1.15,1.15,0,0,0,1.15,1.15h6.965a1.15,1.15,0,0,0,1.15-1.15V223.05a1.15,1.15,0,0,0-1.15-1.15Zm-1.171,6.943h-4.622v-4.6h4.622Zm0,0" transform="translate(16.754 189.812)" fill="#fff"/>
      <path id="Trazado_192995" data-name="Trazado 192995" d="M109.485,216.46H102.52a1.15,1.15,0,0,0-1.15,1.15v6.965a1.15,1.15,0,0,0,1.15,1.15h6.965a1.15,1.15,0,0,0,1.15-1.15V217.61a1.15,1.15,0,0,0-1.15-1.15Zm-1.171,6.943h-4.622v-4.622h4.622Zm0,0" transform="translate(16.754 183.665)" fill="#fff"/>
      <path id="Trazado_192996" data-name="Trazado 192996" d="M104.045,221.9H97.08a1.15,1.15,0,0,0-1.15,1.15v6.965a1.15,1.15,0,0,0,1.15,1.15h6.965a1.15,1.15,0,0,0,1.15-1.15V223.05a1.15,1.15,0,0,0-1.15-1.15Zm-1.171,6.943H98.209v-4.6h4.622Zm0,0" transform="translate(10.607 189.812)" fill="#fff"/>
      <path id="Trazado_192997" data-name="Trazado 192997" d="M104.045,216.46H97.08a1.15,1.15,0,0,0-1.15,1.15v6.965a1.15,1.15,0,0,0,1.15,1.15h6.965a1.15,1.15,0,0,0,1.15-1.15V217.61a1.15,1.15,0,0,0-1.15-1.15Zm-1.171,6.943H98.209v-4.622h4.622Zm0,0" transform="translate(10.607 183.665)" fill="#fff"/>
      <path id="Trazado_192998" data-name="Trazado 192998" d="M104.045,227.34H97.08a1.15,1.15,0,0,0-1.15,1.15v6.965a1.15,1.15,0,0,0,1.15,1.15h6.965a1.15,1.15,0,0,0,1.15-1.15V228.49a1.15,1.15,0,0,0-1.15-1.15Zm-1.171,6.943H98.209v-4.622h4.622Zm0,0" transform="translate(10.607 195.958)" fill="#fff"/>
      <path id="Trazado_192999" data-name="Trazado 192999" d="M104.045,232.78H97.08a1.15,1.15,0,0,0-1.15,1.15v6.965a1.15,1.15,0,0,0,1.15,1.15h6.965a1.15,1.15,0,0,0,1.15-1.15V233.93a1.15,1.15,0,0,0-1.15-1.15Zm-1.171,6.858H98.209v-4.622h4.622Zm0,0" transform="translate(10.607 202.105)" fill="#fff"/>
      <path id="Trazado_193000" data-name="Trazado 193000" d="M110.68,244.236h6.965a1.171,1.171,0,0,0,1.15-1.171v-6.943a1.171,1.171,0,0,0-1.15-1.171H110.68a1.171,1.171,0,0,0-1.15,1.171v6.943a1.171,1.171,0,0,0,1.15,1.171Zm1.171-6.965h4.622v4.643h-4.622Zm0,0" transform="translate(25.973 204.558)" fill="#fff"/>
      <path id="Trazado_193001" data-name="Trazado 193001" d="M110.68,238.8h6.965a1.171,1.171,0,0,0,1.15-1.171v-6.943a1.171,1.171,0,0,0-1.15-1.171H110.68a1.171,1.171,0,0,0-1.15,1.171v6.943a1.171,1.171,0,0,0,1.15,1.171Zm1.171-6.965h4.622v4.643h-4.622Zm0,0" transform="translate(25.973 198.41)" fill="#fff"/>
      <path id="Trazado_193002" data-name="Trazado 193002" d="M109.841,231.165h6.943a1.171,1.171,0,0,0,1.171-1.15V223.05a1.171,1.171,0,0,0-1.171-1.15h-6.943a1.171,1.171,0,0,0-1.171,1.15v6.965A1.171,1.171,0,0,0,109.841,231.165Zm1.15-6.943h4.643v4.622h-4.643Zm0,0" transform="translate(25.002 189.812)" fill="#fff"/>
      <path id="Trazado_193003" data-name="Trazado 193003" d="M110.68,249.655h6.965a1.15,1.15,0,0,0,1.15-1.15v-6.943a1.171,1.171,0,0,0-1.15-1.171H110.68a1.171,1.171,0,0,0-1.15,1.171V248.5A1.15,1.15,0,0,0,110.68,249.655Zm1.171-6.943h4.622v4.643h-4.622Zm0,0" transform="translate(25.973 210.704)" fill="#fff"/>
      <path id="Trazado_193004" data-name="Trazado 193004" d="M105.24,244.236H112.2a1.171,1.171,0,0,0,1.15-1.171v-6.943a1.172,1.172,0,0,0-1.15-1.171H105.24a1.171,1.171,0,0,0-1.15,1.171v6.943a1.171,1.171,0,0,0,1.15,1.171Zm1.171-6.965h4.622v4.643h-4.622Zm0,0" transform="translate(19.827 204.558)" fill="#fff"/>
      <path id="Trazado_193005" data-name="Trazado 193005" d="M105.24,238.8H112.2a1.171,1.171,0,0,0,1.15-1.171v-6.943a1.172,1.172,0,0,0-1.15-1.171H105.24a1.171,1.171,0,0,0-1.15,1.171v6.943a1.171,1.171,0,0,0,1.15,1.171Zm1.171-6.965h4.622v4.643h-4.622Zm0,0" transform="translate(19.827 198.41)" fill="#fff"/>
      <path id="Trazado_193006" data-name="Trazado 193006" d="M105.24,254.3H112.2a1.15,1.15,0,0,0,1.15-1.15V241.561a1.171,1.171,0,0,0-1.15-1.171H105.24a1.172,1.172,0,0,0-1.15,1.171v11.587A1.15,1.15,0,0,0,105.24,254.3Zm1.171-11.587h4.622v9.265h-4.622Zm0,0" transform="translate(19.827 210.704)" fill="#fff"/>
      <path id="Trazado_193007" data-name="Trazado 193007" d="M156.118,281.478h-6.943V243.14a1.15,1.15,0,0,0-1.15-1.15h-16.23V215.451a1.171,1.171,0,0,0-1.15-1.171H100.507a1.171,1.171,0,0,0-1.15,1.171v66.027H88.941a1.161,1.161,0,1,0,0,2.322h67.177a1.161,1.161,0,1,0,0-2.322ZM116.736,243.14v38.338H101.678V216.6h27.689V242.16H117.78a1.15,1.15,0,0,0-1.044,1.086Zm30.117,38.338h-27.8v-37.06h27.8Z" transform="translate(1.387 181.202)" fill="#fff"/>
      <path id="Trazado_193008" data-name="Trazado 193008" d="M103.9,240.39H96.96a1.172,1.172,0,0,0-1.15,1.171v11.587a1.15,1.15,0,0,0,1.15,1.15H103.9a1.171,1.171,0,0,0,1.171-1.15V241.561A1.171,1.171,0,0,0,103.9,240.39Zm-1.171,11.587h-4.6V242.52h4.6Z" transform="translate(10.471 210.704)" fill="#fff"/>
      <path id="Trazado_193009" data-name="Trazado 193009" d="M122,219.52H107.33v16.656h17.039V221.948A2.428,2.428,0,0,0,122,219.52Zm-.277,16.421H109.694V222.268h12.034Z" transform="translate(23.488 187.123)" fill="#fff"/>
    </g>
  </g>
</svg>
