<svg xmlns="http://www.w3.org/2000/svg" xmlns:xlink="http://www.w3.org/1999/xlink" width="179" height="179" viewBox="0 0 179 179">
  <defs>
    <filter id="Elipse_4062" x="0" y="0" width="179" height="179" filterUnits="userSpaceOnUse">
      <feOffset dy="3" input="SourceAlpha"/>
      <feGaussianBlur stdDeviation="3" result="blur"/>
      <feFlood flood-opacity="0.161"/>
      <feComposite operator="in" in2="blur"/>
      <feComposite in="SourceGraphic"/>
    </filter>
  </defs>
  <g id="Grupo_130696" data-name="Grupo 130696" transform="translate(-695.856 -2479.893)">
    <g id="Grupo_130128" data-name="Grupo 130128" transform="translate(419.856 1623.619)">
      <g transform="matrix(1, 0, 0, 1, 276, 856.27)" filter="url(#Elipse_4062)">
        <circle id="Elipse_4062-2" data-name="Elipse 4062" cx="80.5" cy="80.5" r="80.5" transform="translate(9 6)" fill="#fff"/>
      </g>
      <circle id="Elipse_4063" data-name="Elipse 4063" cx="62" cy="62" r="62" transform="translate(302 881.273)" fill="#ba68c8"/>
    </g>
    <path id="Trazado_192993" data-name="Trazado 192993" d="M456.118,227.706a54.952,54.952,0,0,0-19.659,3.812,1.853,1.853,0,0,0-1,1.15,1.831,1.831,0,0,0,.149,1.342c-2.79-1.044-6.709-2.6-10.649-4.26-6.667-3-10.969-2.13-15.74,1.683H394.309c0-.6.149-1.15.192-1.683a1.811,1.811,0,0,0-.554-1.512c-2.13-2.13-8.967-3.195-14.185-3.749v3.749a43.427,43.427,0,0,1,10.948,2.258c-.98,8.094-5.431,22.513-6.794,26.858H376.29v3.706h8.967a1.853,1.853,0,0,0,1.768-1.278s.192-.6.426-1.342l1.363,1.427c1.661,1.725,3.365,3.493,4.515,4.473,6.9,5.772,15.186,11.991,16.847,13.078a14.163,14.163,0,0,0,6.56,2.13,6.39,6.39,0,0,0,4.26-1.235,5.708,5.708,0,0,0,4.26,0,7.242,7.242,0,0,0,3.855-3.557,7.136,7.136,0,0,0,4.664-.66,6.389,6.389,0,0,0,3.088-3.237,6.049,6.049,0,0,0,4.26-1.512,5.836,5.836,0,0,0,2-5.6l2.939-1.981c.192.639.383,1.235.49,1.661a1.874,1.874,0,0,0,1.789,1.363h7.838v-3.706h-6.39c-1.747-5.708-6.943-20.617-9.819-26.794a59.829,59.829,0,0,1,16.272-2.747Zm-17.465,38.7a2.13,2.13,0,0,1-2.236.469c-1.384-1.108-5.729-5.389-9.35-9.159a1.853,1.853,0,1,0-2.684,2.556c.852.895,6.39,6.624,9.031,8.9a2.619,2.619,0,0,1-1.342,1.491,2.833,2.833,0,0,1-2.9,0h0c-2.13-1.768-10.458-10.649-11.714-11.97a1.855,1.855,0,1,0-2.748,2.492s7.8,8.52,11.246,11.587a3.493,3.493,0,0,1-1.96,2,1.981,1.981,0,0,1-2.13-.319h0a76.521,76.521,0,0,1-6.39-6.241,1.853,1.853,0,1,0-2.7,2.535c1.193,1.278,3,3.195,5.069,5.069a4.887,4.887,0,0,1-.873,0,10.649,10.649,0,0,1-4.537-1.555c-1.3-.852-9.457-6.943-16.485-12.779-1-.831-2.7-2.62-4.26-4.26-1.108-1.15-2.13-2.13-2.811-2.854,1.555-5.09,3.791-12.928,5.005-19.3h11.374c-2.535,2.535-5.942,7.646-5.048,11.374a4.537,4.537,0,0,0,3.174,3.344,9.265,9.265,0,0,0,10.884-3.727,24.4,24.4,0,0,0,4.068-1.427c2.13,1.981,4.984,4.26,7.987,6.73,5.453,4.409,11.629,9.393,13.014,12.289a2.13,2.13,0,0,1-.681,2.662Zm2.769-6.134a83.612,83.612,0,0,0-12.886-11.8c-3.365-2.726-6.539-5.282-8.519-7.305a1.874,1.874,0,0,0-1.938-.447,45.535,45.535,0,0,0-6.39,2.556c-2.62,3.919-5.325,3.6-7.135,2.982-.575-.192-.682-.447-.745-.682-.383-1.619,1.555-5.41,4.089-7.944,6.028-6.006,9.137-7.519,15.676-4.6s12.439,5.069,14.355,5.751c2.13,5.282,5.112,13.482,7.007,19.169Z" transform="translate(369.044 2328.436)" fill="#fff"/>
  </g>
</svg>
