<svg xmlns="http://www.w3.org/2000/svg" xmlns:xlink="http://www.w3.org/1999/xlink" width="179" height="179" viewBox="0 0 179 179">
  <defs>
    <filter id="Elipse_4062" x="0" y="0" width="179" height="179" filterUnits="userSpaceOnUse">
      <feOffset dy="3" input="SourceAlpha"/>
      <feGaussianBlur stdDeviation="3" result="blur"/>
      <feFlood flood-opacity="0.161"/>
      <feComposite operator="in" in2="blur"/>
      <feComposite in="SourceGraphic"/>
    </filter>
  </defs>
  <g id="Grupo_130697" data-name="Grupo 130697" transform="translate(-695.334 -2658)">
    <g id="Grupo_130129" data-name="Grupo 130129" transform="translate(419.334 1801.727)">
      <g transform="matrix(1, 0, 0, 1, 276, 856.27)" filter="url(#Elipse_4062)">
        <circle id="Elipse_4062-2" data-name="Elipse 4062" cx="80.5" cy="80.5" r="80.5" transform="translate(9 6)" fill="#fff"/>
      </g>
      <circle id="Elipse_4063" data-name="Elipse 4063" cx="62" cy="62" r="62" transform="translate(302 881.273)" fill="#ba68c8"/>
    </g>
    <g id="Grupo_130248" data-name="Grupo 130248" transform="translate(-0.221 355.962)">
      <g id="noun_cargo_delivered_3082629" data-name="noun_cargo delivered_3082629" transform="translate(735.555 2321.795)">
        <g id="Grupo_128906" data-name="Grupo 128906" transform="translate(0 35.405)">
          <rect id="Rectángulo_39571" data-name="Rectángulo 39571" width="51.898" height="2.381" transform="translate(6.666 39.897)" fill="none"/>
          <rect id="Rectángulo_39572" data-name="Rectángulo 39572" width="3.333" height="19.997" transform="translate(20.473 21.6)" fill="none"/>
          <rect id="Rectángulo_39573" data-name="Rectángulo 39573" width="3.333" height="19.997" transform="translate(13.808 21.6)" fill="none"/>
          <rect id="Rectángulo_39574" data-name="Rectángulo 39574" width="3.333" height="19.997" transform="translate(27.615 21.6)" fill="none"/>
          <rect id="Rectángulo_39575" data-name="Rectángulo 39575" width="3.333" height="19.997" transform="translate(34.757 21.6)" fill="none"/>
          <path id="Trazado_197032" data-name="Trazado 197032" d="M24.066,19.1A6.509,6.509,0,0,0,17.4,25.766a6.509,6.509,0,0,0,6.666,6.666,6.509,6.509,0,0,0,6.666-6.666A6.809,6.809,0,0,0,24.066,19.1Zm0,9.522a2.857,2.857,0,1,1,2.857-2.857A2.859,2.859,0,0,1,24.066,28.622Z" transform="translate(57.352 26.436)" fill="none"/>
          <path id="Trazado_197033" data-name="Trazado 197033" d="M41.135,24.794a2.048,2.048,0,0,1-1.9-1.9,2.048,2.048,0,0,1,1.9-1.9h1.9V16.7H15.9V32.412h3.642a10.413,10.413,0,0,1,20.183-.476h3.314V24.794Z" transform="translate(51.71 17.409)" fill="none"/>
          <rect id="Rectángulo_39576" data-name="Rectángulo 39576" width="3.333" height="19.997" transform="translate(41.423 21.6)" fill="none"/>
          <rect id="Rectángulo_39577" data-name="Rectángulo 39577" width="3.333" height="19.997" transform="translate(6.666 21.6)" fill="none"/>
          <path id="Trazado_197034" data-name="Trazado 197034" d="M41.054,27.179,31.136,12.9H15.9V27.179Z" transform="translate(51.71 16.796)" fill="none"/>
          <path id="Trazado_197035" data-name="Trazado 197035" d="M5.7,13.29H33.315L19.508,7.1Z" transform="translate(13.345 7.534)" fill="none"/>
          <path id="Trazado_197036" data-name="Trazado 197036" d="M2.5,16.7V32.888h8.289a10.45,10.45,0,0,1,20.559,0H62.492V16.7H2.5Z" transform="translate(1.309 17.409)" fill="none"/>
          <rect id="Rectángulo_39578" data-name="Rectángulo 39578" width="51.898" height="2.381" transform="translate(6.666 21.298)" fill="none"/>
          <rect id="Rectángulo_39579" data-name="Rectángulo 39579" width="3.809" height="6.666" transform="translate(30.948)" fill="none"/>
          <path id="Trazado_197037" data-name="Trazado 197037" d="M11.666,19.1A6.509,6.509,0,0,0,5,25.766a6.509,6.509,0,0,0,6.666,6.666,6.509,6.509,0,0,0,6.666-6.666A6.809,6.809,0,0,0,11.666,19.1Zm0,9.522a2.857,2.857,0,1,1,2.857-2.857A2.859,2.859,0,0,1,11.666,28.622Z" transform="translate(10.712 26.436)" fill="none"/>
          <rect id="Rectángulo_39580" data-name="Rectángulo 39580" width="3.333" height="19.997" transform="translate(55.231 21.6)" fill="none"/>
          <rect id="Rectángulo_39581" data-name="Rectángulo 39581" width="3.333" height="19.997" transform="translate(48.565 21.6)" fill="none"/>
          <ellipse id="Elipse_5547" data-name="Elipse 5547" cx="2.857" cy="2.857" rx="2.857" ry="2.857" transform="translate(19.521 49.344)" fill="#e6ecf8"/>
          <ellipse id="Elipse_5548" data-name="Elipse 5548" cx="2.857" cy="2.857" rx="2.857" ry="2.857" transform="translate(78.561 49.344)" fill="#e6ecf8"/>
          <path id="Trazado_197038" data-name="Trazado 197038" d="M9.239,59.936v0H8.287a2.048,2.048,0,0,0-1.9,1.9v20a2.048,2.048,0,0,0,1.9,1.9H18.481a10.434,10.434,0,0,0,20.6-.4l32.534.4,5.871-.367a10.418,10.418,0,0,0,20.692-.586h4.861a2.048,2.048,0,0,0,1.9-1.9V62.321L91.609,42.8c-.476-.476-.952-.952-1.428-.952H72.088a2.048,2.048,0,0,0-1.9,1.9V59.464H68.755v-.207h0c0-1.394.84-1.038,0-1.7-1.621-.025-7.961,0-28.23,0-16.42,0-26.608.157-30.548-.146C9.312,57.723,8.942,58.58,9.239,59.936ZM87.8,88.508a6.666,6.666,0,1,1,0-13.331,6.809,6.809,0,0,1,6.666,6.666A6.509,6.509,0,0,1,87.8,88.508Zm10.018-9.522a10.413,10.413,0,0,0-20.183.476H73.992V63.75h27.139v4.285h-1.9a1.9,1.9,0,1,0,0,3.809h1.9v7.142ZM89.228,45.657l9.918,14.279H73.992V45.657Zm-76.18,11.9h51.9v2.381h-51.9ZM28.76,88.508a6.666,6.666,0,1,1,0-13.331,6.809,6.809,0,0,1,6.666,6.666A6.509,6.509,0,0,1,28.76,88.508ZM70.183,63.75V79.938H39.04a10.45,10.45,0,0,0-20.559,0H10.192V63.75H70.183Z" transform="translate(-6.383 -29.641)" fill="#e6ecf8"/>
        </g>
      </g>
      <g id="noun_cargo_3082634" transform="translate(739.067 2360.482)">
        <g id="Grupo_128908" data-name="Grupo 128908" transform="translate(0 0)">
          <path id="Trazado_197050" data-name="Trazado 197050" d="M28.8,13.841H22.175V2.191a.49.49,0,0,0-.491-.491H7.581a.49.49,0,0,0-.491.491V13.841H.591a.49.49,0,0,0-.491.491V26.1a.813.813,0,0,0,.858.86h27.47a1.037,1.037,0,0,0,.714-.389.492.492,0,0,0,.145-.347v-11.9A.49.49,0,0,0,28.8,13.841Zm-5.764.981v1.716H20.458V14.822ZM13.345,2.681H15.92V4.4l-2.574,0Zm-5.273,0h4.292v1.84a.813.813,0,0,0,.858.858h2.821a.813.813,0,0,0,.858-.858V2.681h4.292v11.16H8.071ZM6.354,14.822H8.93v1.716H6.354ZM14.2,25.982H1.081V14.822H5.373v1.84a.812.812,0,0,0,.858.858H9.052a.812.812,0,0,0,.858-.858v-1.84H14.2Zm14.1,0H15.184V14.822h4.292v1.84a.812.812,0,0,0,.858.858h2.821a.812.812,0,0,0,.858-.858v-1.84h4.292Z" transform="translate(-0.1 -1.7)" fill="#e6ecf8"/>
          <path id="Trazado_197051" data-name="Trazado 197051" d="M18.917,17.938a.394.394,0,0,0,.023.547.412.412,0,0,0,.465.081V19.7c0,.137,0,.206,0,.459a.409.409,0,0,0,.413.423h0a.413.413,0,0,0,.407-.408,1.2,1.2,0,0,0,0-.121v-.374c0-.386,0-.65,0-1.118a.4.4,0,0,0,.487-.088.414.414,0,0,0-.037-.587c-.181-.184-.364-.369-.551-.549a.415.415,0,0,0-.584-.032C19.349,17.493,19.142,17.7,18.917,17.938Z" transform="translate(4.137 1.809)" fill="#e6ecf8"/>
          <path id="Trazado_197052" data-name="Trazado 197052" d="M21.169,18.577a.29.29,0,0,0,.166-.029v1.607a.429.429,0,0,0,.159.351.394.394,0,0,0,.242.08.445.445,0,0,0,.118-.016.414.414,0,0,0,.3-.435V18.565a.4.4,0,0,0,.475-.077.417.417,0,0,0-.027-.6c-.179-.18-.358-.363-.541-.538a.425.425,0,0,0-.606-.028c-.185.174-.373.362-.592.592a.38.38,0,0,0-.055.434A.41.41,0,0,0,21.169,18.577Z" transform="translate(4.578 1.81)" fill="#e6ecf8"/>
          <path id="Trazado_197053" data-name="Trazado 197053" d="M22.732,20.253h-3.45a.491.491,0,0,0-.354.134.392.392,0,0,0-.112.287.418.418,0,0,0,.465.4h2.155c.435,0,.872,0,1.309,0a.415.415,0,0,0,.367-.172.4.4,0,0,0,.029-.428A.424.424,0,0,0,22.732,20.253Z" transform="translate(4.137 2.5)" fill="#e6ecf8"/>
          <path id="Trazado_197054" data-name="Trazado 197054" d="M7.417,17.938a.394.394,0,0,0,.023.547.413.413,0,0,0,.465.081V19.7c0,.137,0,.206,0,.459a.409.409,0,0,0,.413.423h0a.413.413,0,0,0,.407-.408,1.2,1.2,0,0,0,0-.121v-.374c0-.386,0-.65,0-1.118a.4.4,0,0,0,.487-.088.414.414,0,0,0-.037-.587c-.181-.184-.364-.369-.551-.549a.415.415,0,0,0-.584-.032C7.849,17.493,7.642,17.7,7.417,17.938Z" transform="translate(1.534 1.809)" fill="#e6ecf8"/>
          <path id="Trazado_197055" data-name="Trazado 197055" d="M9.669,18.577a.292.292,0,0,0,.166-.029v1.607a.429.429,0,0,0,.159.351.394.394,0,0,0,.242.08.445.445,0,0,0,.118-.016.414.414,0,0,0,.3-.435V18.565a.4.4,0,0,0,.475-.077.417.417,0,0,0-.027-.6c-.179-.18-.358-.363-.541-.538a.425.425,0,0,0-.606-.028c-.185.174-.373.362-.592.592a.38.38,0,0,0-.055.434A.41.41,0,0,0,9.669,18.577Z" transform="translate(1.975 1.81)" fill="#e6ecf8"/>
          <path id="Trazado_197056" data-name="Trazado 197056" d="M11.232,20.253H7.782a.491.491,0,0,0-.354.134.392.392,0,0,0-.112.287.418.418,0,0,0,.465.4H9.936c.435,0,.872,0,1.309,0a.415.415,0,0,0,.367-.172.4.4,0,0,0,.029-.428A.424.424,0,0,0,11.232,20.253Z" transform="translate(1.533 2.5)" fill="#e6ecf8"/>
          <path id="Trazado_197057" data-name="Trazado 197057" d="M13.706,8.69V9.818c0,.143,0,.21,0,.467a.409.409,0,0,0,.413.424h0a.416.416,0,0,0,.408-.411c0-.028,0-.058,0-.087V8.687a.4.4,0,0,0,.486-.088.411.411,0,0,0-.037-.587c-.182-.185-.364-.37-.551-.551a.421.421,0,0,0-.584-.032c-.2.189-.412.4-.634.633a.4.4,0,0,0,.023.547A.418.418,0,0,0,13.706,8.69Z" transform="translate(2.847 -0.426)" fill="#e6ecf8"/>
          <path id="Trazado_197058" data-name="Trazado 197058" d="M15.468,8.7a.377.377,0,0,0,.166-.029v1.607a.433.433,0,0,0,.161.351.391.391,0,0,0,.24.08.445.445,0,0,0,.118-.016.416.416,0,0,0,.3-.435V8.686a.4.4,0,0,0,.476-.076.415.415,0,0,0-.027-.6c-.179-.183-.358-.363-.54-.541a.419.419,0,0,0-.6-.027c-.182.168-.37.357-.594.592a.38.38,0,0,0-.054.434A.391.391,0,0,0,15.468,8.7Z" transform="translate(3.289 -0.427)" fill="#e6ecf8"/>
          <path id="Trazado_197059" data-name="Trazado 197059" d="M13.58,11.2h3.464a.412.412,0,0,0,.365-.17.4.4,0,0,0,.031-.428.421.421,0,0,0-.408-.226h-3.45a.488.488,0,0,0-.354.136.4.4,0,0,0-.11.287A.415.415,0,0,0,13.58,11.2Z" transform="translate(2.847 0.264)" fill="#e6ecf8"/>
        </g>
      </g>
      <g id="noun_cargo_3082634-2" data-name="noun_cargo_3082634" transform="translate(768.254 2360.482)">
        <g id="Grupo_128908-2" data-name="Grupo 128908" transform="translate(0 0)">
          <path id="Trazado_197050-2" data-name="Trazado 197050" d="M28.8,13.841H22.175V2.191a.49.49,0,0,0-.491-.491H7.581a.49.49,0,0,0-.491.491V13.841H.591a.49.49,0,0,0-.491.491V26.1a.813.813,0,0,0,.858.86h27.47a1.037,1.037,0,0,0,.714-.389.492.492,0,0,0,.145-.347v-11.9A.49.49,0,0,0,28.8,13.841Zm-5.764.981v1.716H20.458V14.822ZM13.345,2.681H15.92V4.4l-2.574,0Zm-5.273,0h4.292v1.84a.813.813,0,0,0,.858.858h2.821a.813.813,0,0,0,.858-.858V2.681h4.292v11.16H8.071ZM6.354,14.822H8.93v1.716H6.354ZM14.2,25.982H1.081V14.822H5.373v1.84a.812.812,0,0,0,.858.858H9.052a.812.812,0,0,0,.858-.858v-1.84H14.2Zm14.1,0H15.184V14.822h4.292v1.84a.812.812,0,0,0,.858.858h2.821a.812.812,0,0,0,.858-.858v-1.84h4.292Z" transform="translate(-0.1 -1.7)" fill="#e6ecf8"/>
          <path id="Trazado_197051-2" data-name="Trazado 197051" d="M18.917,17.938a.394.394,0,0,0,.023.547.412.412,0,0,0,.465.081V19.7c0,.137,0,.206,0,.459a.409.409,0,0,0,.413.423h0a.413.413,0,0,0,.407-.408,1.2,1.2,0,0,0,0-.121v-.374c0-.386,0-.65,0-1.118a.4.4,0,0,0,.487-.088.414.414,0,0,0-.037-.587c-.181-.184-.364-.369-.551-.549a.415.415,0,0,0-.584-.032C19.349,17.493,19.142,17.7,18.917,17.938Z" transform="translate(4.137 1.809)" fill="#e6ecf8"/>
          <path id="Trazado_197052-2" data-name="Trazado 197052" d="M21.169,18.577a.29.29,0,0,0,.166-.029v1.607a.429.429,0,0,0,.159.351.394.394,0,0,0,.242.08.445.445,0,0,0,.118-.016.414.414,0,0,0,.3-.435V18.565a.4.4,0,0,0,.475-.077.417.417,0,0,0-.027-.6c-.179-.18-.358-.363-.541-.538a.425.425,0,0,0-.606-.028c-.185.174-.373.362-.592.592a.38.38,0,0,0-.055.434A.41.41,0,0,0,21.169,18.577Z" transform="translate(4.578 1.81)" fill="#e6ecf8"/>
          <path id="Trazado_197053-2" data-name="Trazado 197053" d="M22.732,20.253h-3.45a.491.491,0,0,0-.354.134.392.392,0,0,0-.112.287.418.418,0,0,0,.465.4h2.155c.435,0,.872,0,1.309,0a.415.415,0,0,0,.367-.172.4.4,0,0,0,.029-.428A.424.424,0,0,0,22.732,20.253Z" transform="translate(4.137 2.5)" fill="#e6ecf8"/>
          <path id="Trazado_197054-2" data-name="Trazado 197054" d="M7.417,17.938a.394.394,0,0,0,.023.547.413.413,0,0,0,.465.081V19.7c0,.137,0,.206,0,.459a.409.409,0,0,0,.413.423h0a.413.413,0,0,0,.407-.408,1.2,1.2,0,0,0,0-.121v-.374c0-.386,0-.65,0-1.118a.4.4,0,0,0,.487-.088.414.414,0,0,0-.037-.587c-.181-.184-.364-.369-.551-.549a.415.415,0,0,0-.584-.032C7.849,17.493,7.642,17.7,7.417,17.938Z" transform="translate(1.534 1.809)" fill="#e6ecf8"/>
          <path id="Trazado_197055-2" data-name="Trazado 197055" d="M9.669,18.577a.292.292,0,0,0,.166-.029v1.607a.429.429,0,0,0,.159.351.394.394,0,0,0,.242.08.445.445,0,0,0,.118-.016.414.414,0,0,0,.3-.435V18.565a.4.4,0,0,0,.475-.077.417.417,0,0,0-.027-.6c-.179-.18-.358-.363-.541-.538a.425.425,0,0,0-.606-.028c-.185.174-.373.362-.592.592a.38.38,0,0,0-.055.434A.41.41,0,0,0,9.669,18.577Z" transform="translate(1.975 1.81)" fill="#e6ecf8"/>
          <path id="Trazado_197056-2" data-name="Trazado 197056" d="M11.232,20.253H7.782a.491.491,0,0,0-.354.134.392.392,0,0,0-.112.287.418.418,0,0,0,.465.4H9.936c.435,0,.872,0,1.309,0a.415.415,0,0,0,.367-.172.4.4,0,0,0,.029-.428A.424.424,0,0,0,11.232,20.253Z" transform="translate(1.533 2.5)" fill="#e6ecf8"/>
          <path id="Trazado_197057-2" data-name="Trazado 197057" d="M13.706,8.69V9.818c0,.143,0,.21,0,.467a.409.409,0,0,0,.413.424h0a.416.416,0,0,0,.408-.411c0-.028,0-.058,0-.087V8.687a.4.4,0,0,0,.486-.088.411.411,0,0,0-.037-.587c-.182-.185-.364-.37-.551-.551a.421.421,0,0,0-.584-.032c-.2.189-.412.4-.634.633a.4.4,0,0,0,.023.547A.418.418,0,0,0,13.706,8.69Z" transform="translate(2.847 -0.426)" fill="#e6ecf8"/>
          <path id="Trazado_197058-2" data-name="Trazado 197058" d="M15.468,8.7a.377.377,0,0,0,.166-.029v1.607a.433.433,0,0,0,.161.351.391.391,0,0,0,.24.08.445.445,0,0,0,.118-.016.416.416,0,0,0,.3-.435V8.686a.4.4,0,0,0,.476-.076.415.415,0,0,0-.027-.6c-.179-.183-.358-.363-.54-.541a.419.419,0,0,0-.6-.027c-.182.168-.37.357-.594.592a.38.38,0,0,0-.054.434A.391.391,0,0,0,15.468,8.7Z" transform="translate(3.289 -0.427)" fill="#e6ecf8"/>
          <path id="Trazado_197059-2" data-name="Trazado 197059" d="M13.58,11.2h3.464a.412.412,0,0,0,.365-.17.4.4,0,0,0,.031-.428.421.421,0,0,0-.408-.226h-3.45a.488.488,0,0,0-.354.136.4.4,0,0,0-.11.287A.415.415,0,0,0,13.58,11.2Z" transform="translate(2.847 0.264)" fill="#e6ecf8"/>
        </g>
      </g>
    </g>
  </g>
</svg>
